<svg xmlns="http://www.w3.org/2000/svg" xmlns:xlink="http://www.w3.org/1999/xlink" width="500" zoomAndPan="magnify" viewBox="0 0 375 374.999991" height="500" preserveAspectRatio="xMidYMid meet" version="1.0"><defs><g/><clipPath id="cba6b88427"><path d="M 70 96 L 133.839844 96 L 133.839844 124 L 70 124 Z M 70 96 " clip-rule="nonzero"/></clipPath><clipPath id="1c120fe0af"><path d="M 22 1.972656 L 116 1.972656 L 116 86 L 22 86 Z M 22 1.972656 " clip-rule="nonzero"/></clipPath><clipPath id="18a58c17c2"><path d="M 138 24 L 370.800781 24 L 370.800781 115 L 138 115 Z M 138 24 " clip-rule="nonzero"/></clipPath><clipPath id="9648a0968c"><rect x="0" width="233" y="0" height="91"/></clipPath><clipPath id="b3efe3f089"><rect x="0" width="371" y="0" height="140"/></clipPath></defs><g transform="matrix(1, 0, 0, 1, 0, 117)"><g clip-path="url(#b3efe3f089)"><g clip-path="url(#cba6b88427)"><path fill="#2b4257" d="M 87.441406 119.347656 C 84.695312 120.140625 82.402344 120.769531 79.71875 121.542969 C 77.503906 122.160156 73.207031 122.835938 70.621094 121.316406 C 70.460938 121.171875 70.332031 121.074219 70.21875 121.011719 C 70.25 120.960938 70.285156 120.882812 70.316406 120.753906 C 74.582031 119.316406 79.71875 118.039062 84.402344 116.714844 C 92.222656 114.515625 91.253906 115.46875 94.40625 107.875 C 97.863281 99.554688 108.414062 96.988281 119.511719 96.226562 L 122.628906 96.40625 L 124.792969 96.664062 C 136.121094 98.75 135.585938 105.824219 128.980469 112.773438 C 125.328125 116.617188 118.332031 121.480469 110.707031 122.949219 L 107.214844 123.53125 L 102.53125 123.226562 C 94.890625 121.285156 97.085938 116.570312 87.457031 119.347656 Z M 87.441406 119.347656 " fill-opacity="1" fill-rule="evenodd"/></g><path fill="#2b4257" d="M 94.664062 135.359375 C 94.664062 135.359375 93.546875 134.839844 91.335938 133.808594 L 88.296875 132.691406 C 85.148438 131.027344 69.6875 124.484375 66.972656 125.164062 C 63.320312 126.085938 49.054688 130.929688 46.40625 132.417969 C 42.609375 133.386719 35.207031 137.507812 31.054688 135.746094 C 29.035156 134.890625 27.695312 131.738281 28.292969 128.816406 C 28.8125 126.246094 31.445312 125.601562 33.640625 124.953125 C 40.394531 124.160156 55.015625 124.453125 60.1875 122.367188 C 58.183594 121.042969 54.578125 120.285156 51.832031 119.296875 C 47.746094 117.84375 47.148438 118.234375 43.546875 119.671875 C 37.050781 122.273438 31.558594 118.847656 26.03125 116.941406 C 21.667969 114.679688 17.050781 112.707031 12.574219 110.511719 C 9.988281 109.234375 1.039062 105.5 0.148438 103.144531 L 26.128906 113.402344 C 26.144531 111.109375 25.902344 111.65625 23.625 110.71875 C 16.824219 107.910156 7.9375 103.902344 1.878906 100.105469 C 2.800781 99.28125 2.945312 99.441406 4.285156 99.910156 L 10.214844 102.464844 C 12.945312 103.609375 15.820312 104.695312 18.550781 105.871094 C 21.023438 106.746094 26.839844 110.285156 28.117188 108.003906 C 25.335938 104.871094 6.464844 99.523438 3.734375 96.082031 C 5.835938 94.839844 26.644531 105.664062 29.601562 104.53125 C 30.136719 102.835938 28.941406 102.820312 26.984375 102.011719 L 15.140625 96.972656 C 12.363281 95.679688 7.308594 94.078125 5.5625 92.1875 C 7.644531 91.171875 42.15625 105.066406 44.5 107.148438 C 46.648438 109.054688 46.855469 111.238281 48.390625 113.417969 C 53.480469 120.640625 89.785156 125.324219 98.765625 126.746094 L 103.308594 127.167969 L 106.75 127.828125 C 114.582031 130.527344 110.269531 137.214844 109.769531 137.765625 C 107.121094 140.65625 100.578125 137.71875 97.425781 136.390625 C 96.277344 135.921875 95.390625 135.566406 94.648438 135.324219 Z M 94.664062 135.359375 " fill-opacity="1" fill-rule="evenodd"/><g clip-path="url(#1c120fe0af)"><path fill="#2b4257" d="M 89.945312 64.964844 C 88.832031 68.261719 90.027344 75.449219 89.121094 76.890625 C 88.460938 77 87.667969 77 86.730469 76.921875 C 84.535156 75.953125 81.578125 74.949219 79.6875 74.464844 C 76.066406 73.542969 72.207031 72.960938 68.246094 72.960938 C 64.226562 72.960938 61.121094 73.300781 57.277344 73.933594 C 47.132812 75.628906 46.421875 73.769531 46.613281 68.714844 C 61.105469 64.980469 74.160156 65.335938 85.777344 69.78125 C 79.054688 62.898438 66.066406 61.121094 46.792969 64.449219 C 46.792969 64.5625 46.792969 64.675781 46.792969 64.789062 C 46.792969 64.53125 46.808594 64.269531 46.808594 63.996094 C 46.839844 60.957031 46.5 60.085938 45.628906 57.695312 C 46.855469 56.386719 50.976562 55.175781 53.175781 54.707031 C 60.152344 53.234375 68.894531 53.738281 75.855469 54.738281 C 78.992188 55.191406 83.933594 55.964844 86.777344 56.917969 C 87.523438 57.160156 88.183594 57.613281 88.910156 57.9375 C 91.238281 58.988281 93.9375 59.8125 96.554688 60.054688 C 108.445312 61.183594 117.667969 51.234375 114.582031 40.375 C 112.226562 32.085938 103.808594 26.480469 95.566406 24.476562 C 104.308594 32.652344 121.402344 49.261719 95.097656 57.273438 C 93.175781 56.144531 91.191406 55.125 89.121094 54.238281 C 88.121094 53.816406 87.117188 53.414062 86.085938 53.042969 C 71.558594 47.808594 55.128906 48.9375 40.378906 52.378906 C 37.421875 53.011719 36 54.542969 31.558594 49.132812 C 25.0625 38.96875 30.699219 25.125 40.363281 19.453125 C 40.554688 21.410156 39.425781 30.472656 43.351562 36.855469 C 43.578125 32.265625 41.332031 17.238281 49.652344 12.054688 C 64.675781 2.699219 90.285156 8.046875 93.304688 37.953125 C 94.421875 26.964844 97.734375 15.59375 87.199219 8.0625 C 82.660156 4.816406 77.617188 2.878906 70.734375 2.148438 C 60.6875 1.082031 47.664062 4.023438 42.527344 12.894531 C 41.832031 14.074219 41.992188 14.316406 41.394531 14.589844 C 40.960938 14.785156 39.765625 15.058594 39.230469 15.238281 C 34.820312 16.773438 29.148438 20.8125 26.613281 24.996094 C 25.109375 27.484375 23.996094 29.308594 23.089844 32.589844 C 20.507812 42.023438 24.527344 50.667969 32.980469 54.820312 C 38.472656 57.515625 39.214844 55.902344 40.425781 58.648438 C 43.367188 65.371094 41.394531 78.421875 41.960938 83.625 C 42.835938 83.285156 42.300781 83.335938 43.191406 82.558594 C 43.578125 82.21875 43.917969 81.960938 44.386719 81.589844 C 45.210938 80.929688 46.257812 80.347656 47.421875 79.8125 C 48.539062 79.78125 51.816406 79.019531 53.078125 78.84375 C 63.644531 77.277344 81.09375 77.019531 90.382812 82.285156 C 92.820312 83.660156 93.824219 85.160156 94.40625 85.355469 C 94.664062 83.546875 94.292969 80.441406 94.195312 78.503906 C 94.097656 76.160156 94.050781 73.769531 94.210938 71.445312 C 94.40625 68.679688 94.875 65.03125 96.699219 62.945312 C 97.472656 62.058594 97.554688 62.089844 98.671875 61.378906 C 95.617188 60.394531 91.304688 60.878906 89.914062 64.933594 Z M 46.710938 66.96875 C 46.726562 66.742188 46.726562 66.515625 46.742188 66.273438 C 46.726562 66.515625 46.726562 66.742188 46.710938 66.96875 Z M 46.761719 65.902344 C 46.761719 65.789062 46.777344 65.675781 46.777344 65.546875 C 46.777344 65.660156 46.761719 65.789062 46.761719 65.902344 Z M 46.777344 65.53125 C 46.792969 65.289062 46.792969 65.03125 46.792969 64.789062 C 46.792969 65.046875 46.777344 65.289062 46.777344 65.53125 Z M 46.761719 65.902344 C 46.761719 66.015625 46.742188 66.128906 46.742188 66.242188 Z M 46.761719 65.902344 " fill-opacity="1" fill-rule="evenodd"/></g><path fill="#2b4257" d="M 90.769531 91.703125 C 90.769531 91.703125 93.984375 102.933594 79.542969 102.933594 C 70.65625 102.933594 68.3125 97.792969 68.3125 97.792969 C 68.3125 97.792969 65.96875 102.933594 57.082031 102.933594 C 42.625 102.933594 45.855469 91.703125 45.855469 91.703125 C 45.855469 91.703125 46.113281 95.96875 50.734375 95.96875 C 55.355469 95.96875 57.957031 88.828125 63.789062 88.828125 C 67.359375 88.828125 68.3125 91.882812 68.3125 91.882812 C 68.3125 91.882812 69.265625 88.828125 72.835938 88.828125 C 78.667969 88.828125 81.285156 95.96875 85.890625 95.96875 C 90.511719 95.96875 90.769531 91.703125 90.769531 91.703125 Z M 90.769531 91.703125 " fill-opacity="1" fill-rule="nonzero"/><g clip-path="url(#18a58c17c2)"><g transform="matrix(1, 0, 0, 1, 138, 24)"><g clip-path="url(#9648a0968c)"><g fill="#2b4257" fill-opacity="1"><g transform="translate(0.755915, 39.934614)"><g><path d="M 14.140625 -22.347656 L 14.140625 -16.472656 L 13.640625 -16.472656 L 13.640625 -16.972656 L 26.632812 -16.972656 L 26.632812 -10.527344 L 13.640625 -10.527344 L 13.640625 -11.027344 L 14.140625 -11.027344 L 14.140625 -5.640625 L 13.640625 -5.640625 L 13.640625 -6.140625 L 19.527344 -6.140625 L 19.527344 0.5 L 1.257812 0.5 L 1.257812 -6.140625 L 7.144531 -6.140625 L 7.144531 -5.640625 L 6.644531 -5.640625 L 6.644531 -22.347656 L 7.144531 -22.347656 L 7.144531 -21.847656 L 1.257812 -21.847656 L 1.257812 -28.488281 L 34.886719 -28.488281 L 34.886719 -18.9375 L 27.390625 -18.9375 L 27.390625 -22.347656 L 27.890625 -22.347656 L 27.890625 -21.847656 L 13.640625 -21.847656 L 13.640625 -22.347656 Z M 13.144531 -22.847656 L 28.390625 -22.847656 L 28.390625 -19.4375 L 27.890625 -19.4375 L 27.890625 -19.9375 L 34.390625 -19.9375 L 34.390625 -19.4375 L 33.890625 -19.4375 L 33.890625 -27.988281 L 34.390625 -27.988281 L 34.390625 -27.488281 L 1.757812 -27.488281 L 1.757812 -27.988281 L 2.257812 -27.988281 L 2.257812 -22.347656 L 1.757812 -22.347656 L 1.757812 -22.847656 L 7.644531 -22.847656 L 7.644531 -5.140625 L 1.757812 -5.140625 L 1.757812 -5.640625 L 2.257812 -5.640625 L 2.257812 0 L 1.757812 0 L 1.757812 -0.5 L 19.027344 -0.5 L 19.027344 0 L 18.53125 0 L 18.53125 -5.640625 L 19.027344 -5.640625 L 19.027344 -5.140625 L 13.144531 -5.140625 L 13.144531 -11.527344 L 26.132812 -11.527344 L 26.132812 -11.027344 L 25.632812 -11.027344 L 25.632812 -16.472656 L 26.132812 -16.472656 L 26.132812 -15.972656 L 13.144531 -15.972656 Z M 13.144531 -22.847656 "/></g></g></g><g fill="#2b4257" fill-opacity="1"><g transform="translate(36.900385, 39.934614)"><g><path d="M 7.144531 -21.847656 L 1.257812 -21.847656 L 1.257812 -28.488281 L 19.527344 -28.488281 L 19.527344 -21.847656 L 13.640625 -21.847656 L 13.640625 -22.347656 L 14.140625 -22.347656 L 14.140625 -5.640625 L 13.640625 -5.640625 L 13.640625 -6.140625 L 26.621094 -6.140625 L 26.621094 -5.640625 L 26.121094 -5.640625 L 26.121094 -9.046875 L 33.621094 -9.046875 L 33.621094 0.5 L 1.257812 0.5 L 1.257812 -6.140625 L 7.144531 -6.140625 L 7.144531 -5.640625 L 6.644531 -5.640625 L 6.644531 -22.347656 L 7.144531 -22.347656 Z M 7.644531 -22.847656 L 7.644531 -5.140625 L 1.757812 -5.140625 L 1.757812 -5.640625 L 2.257812 -5.640625 L 2.257812 0 L 1.757812 0 L 1.757812 -0.5 L 33.121094 -0.5 L 33.121094 0 L 32.621094 0 L 32.621094 -8.546875 L 33.121094 -8.546875 L 33.121094 -8.046875 L 26.621094 -8.046875 L 26.621094 -8.546875 L 27.121094 -8.546875 L 27.121094 -5.140625 L 13.144531 -5.140625 L 13.144531 -22.847656 L 19.027344 -22.847656 L 19.027344 -22.347656 L 18.53125 -22.347656 L 18.53125 -27.988281 L 19.027344 -27.988281 L 19.027344 -27.488281 L 1.757812 -27.488281 L 1.757812 -27.988281 L 2.257812 -27.988281 L 2.257812 -22.347656 L 1.757812 -22.347656 L 1.757812 -22.847656 Z M 7.644531 -22.847656 "/></g></g></g><g fill="#2b4257" fill-opacity="1"><g transform="translate(71.776283, 39.934614)"><g><path d="M 22.648438 0 L 22.648438 -6.140625 L 28.359375 -6.140625 L 28.359375 -5.640625 L 27.917969 -5.402344 L 26.515625 -7.976562 L 26.953125 -8.214844 L 26.953125 -7.71875 L 14.011719 -7.71875 L 14.011719 -8.214844 L 14.453125 -7.980469 L 13.066406 -5.402344 L 12.628906 -5.640625 L 12.628906 -6.140625 L 18.339844 -6.140625 L 18.339844 0.5 L 0.0859375 0.5 L 0.0859375 -6.140625 L 5.699219 -6.140625 L 5.699219 -5.640625 L 5.257812 -5.878906 L 14.316406 -22.585938 L 14.753906 -22.347656 L 14.753906 -21.847656 L 8.867188 -21.847656 L 8.867188 -28.488281 L 23.464844 -28.488281 L 35.707031 -5.878906 L 35.265625 -5.640625 L 35.265625 -6.140625 L 40.898438 -6.140625 L 40.898438 0.5 L 22.648438 0.5 Z M 23.648438 0 L 23.148438 0 L 23.148438 -0.5 L 40.398438 -0.5 L 40.398438 0 L 39.902344 0 L 39.902344 -5.640625 L 40.398438 -5.640625 L 40.398438 -5.140625 L 34.96875 -5.140625 L 22.726562 -27.75 L 23.167969 -27.988281 L 23.167969 -27.488281 L 9.367188 -27.488281 L 9.367188 -27.988281 L 9.867188 -27.988281 L 9.867188 -22.347656 L 9.367188 -22.347656 L 9.367188 -22.847656 L 15.59375 -22.847656 L 5.996094 -5.140625 L 0.585938 -5.140625 L 0.585938 -5.640625 L 1.085938 -5.640625 L 1.085938 0 L 0.585938 0 L 0.585938 -0.5 L 17.839844 -0.5 L 17.839844 0 L 17.339844 0 L 17.339844 -5.640625 L 17.839844 -5.640625 L 17.839844 -5.140625 L 11.792969 -5.140625 L 13.714844 -8.714844 L 27.25 -8.714844 L 29.199219 -5.140625 L 23.148438 -5.140625 L 23.148438 -5.640625 L 23.648438 -5.640625 Z M 20.933594 -19.941406 L 17.398438 -13.425781 L 16.960938 -13.660156 L 16.960938 -14.160156 L 24.007812 -14.160156 L 24.007812 -13.660156 L 23.566406 -13.425781 L 20.054688 -19.945312 L 20.492188 -20.179688 Z M 20.492188 -21.230469 L 24.84375 -13.164062 L 16.121094 -13.164062 L 20.054688 -20.417969 Z M 20.492188 -21.230469 "/></g></g></g><g fill="#2b4257" fill-opacity="1"><g transform="translate(112.760833, 39.934614)"><g><path d="M 19.71875 -8.039062 L 27.289062 -22.578125 L 27.734375 -22.347656 L 27.734375 -21.847656 L 21.964844 -21.847656 L 21.964844 -28.488281 L 40.234375 -28.488281 L 40.234375 -21.847656 L 34.625 -21.847656 L 34.625 -22.347656 L 35.066406 -22.113281 L 23.136719 0.5 L 17.1875 0.5 L 5.238281 -22.113281 L 5.679688 -22.347656 L 5.679688 -21.847656 L 0.0859375 -21.847656 L 0.0859375 -28.488281 L 18.359375 -28.488281 L 18.359375 -21.847656 L 12.570312 -21.847656 L 12.570312 -22.347656 L 13.011719 -22.578125 L 20.605469 -8.039062 L 20.160156 -7.808594 Z M 20.160156 -6.726562 L 11.746094 -22.847656 L 17.859375 -22.847656 L 17.859375 -22.347656 L 17.359375 -22.347656 L 17.359375 -27.988281 L 17.859375 -27.988281 L 17.859375 -27.488281 L 0.585938 -27.488281 L 0.585938 -27.988281 L 1.085938 -27.988281 L 1.085938 -22.347656 L 0.585938 -22.347656 L 0.585938 -22.847656 L 5.980469 -22.847656 L 17.929688 -0.234375 L 17.488281 0 L 17.488281 -0.5 L 22.835938 -0.5 L 22.835938 0 L 22.394531 -0.234375 L 34.320312 -22.847656 L 39.738281 -22.847656 L 39.738281 -22.347656 L 39.238281 -22.347656 L 39.238281 -27.988281 L 39.738281 -27.988281 L 39.738281 -27.488281 L 22.464844 -27.488281 L 22.464844 -27.988281 L 22.964844 -27.988281 L 22.964844 -22.347656 L 22.464844 -22.347656 L 22.464844 -22.847656 L 28.558594 -22.847656 L 20.605469 -7.574219 Z M 20.160156 -6.726562 "/></g></g></g><g fill="#2b4257" fill-opacity="1"><g transform="translate(153.081828, 39.934614)"><g><path d="M 20.023438 1.28125 C 17.445312 1.28125 15.132812 1.023438 13.089844 0.503906 C 11.039062 -0.015625 9.246094 -0.746094 7.722656 -1.683594 C 6.1875 -2.625 4.910156 -3.734375 3.894531 -5.015625 C 2.875 -6.300781 2.113281 -7.707031 1.613281 -9.230469 C 1.117188 -10.753906 0.867188 -12.339844 0.867188 -13.992188 C 0.867188 -15.648438 1.117188 -17.234375 1.613281 -18.753906 C 2.113281 -20.28125 2.875 -21.6875 3.894531 -22.96875 C 4.910156 -24.253906 6.1875 -25.363281 7.722656 -26.304688 C 9.246094 -27.242188 11.039062 -27.972656 13.089844 -28.492188 C 15.132812 -29.007812 17.445312 -29.269531 20.023438 -29.269531 C 22.601562 -29.269531 24.914062 -29.007812 26.957031 -28.492188 C 29.011719 -27.972656 30.804688 -27.242188 32.335938 -26.304688 C 33.878906 -25.363281 35.152344 -24.25 36.167969 -22.96875 C 37.179688 -21.6875 37.9375 -20.28125 38.433594 -18.753906 C 38.933594 -17.234375 39.183594 -15.648438 39.183594 -13.992188 C 39.183594 -12.339844 38.933594 -10.753906 38.433594 -9.230469 C 37.933594 -7.707031 37.175781 -6.300781 36.15625 -5.015625 C 35.136719 -3.734375 33.859375 -2.625 32.328125 -1.683594 C 30.800781 -0.746094 29.011719 -0.015625 26.957031 0.503906 C 24.914062 1.023438 22.601562 1.28125 20.023438 1.28125 Z M 20.023438 0.28125 C 22.519531 0.28125 24.75 0.03125 26.714844 -0.464844 C 28.667969 -0.960938 30.363281 -1.648438 31.804688 -2.535156 C 33.238281 -3.414062 34.429688 -4.449219 35.375 -5.640625 C 36.320312 -6.828125 37.023438 -8.128906 37.484375 -9.542969 C 37.949219 -10.964844 38.183594 -12.445312 38.183594 -13.992188 C 38.183594 -15.539062 37.949219 -17.023438 37.484375 -18.445312 C 37.023438 -19.859375 36.320312 -21.160156 35.382812 -22.351562 C 34.445312 -23.539062 33.253906 -24.574219 31.816406 -25.453125 C 30.367188 -26.335938 28.667969 -27.027344 26.714844 -27.523438 C 24.75 -28.019531 22.519531 -28.269531 20.023438 -28.269531 C 17.527344 -28.269531 15.300781 -28.019531 13.335938 -27.523438 C 11.382812 -27.027344 9.683594 -26.339844 8.242188 -25.453125 C 6.8125 -24.574219 5.621094 -23.539062 4.675781 -22.347656 C 3.730469 -21.160156 3.027344 -19.859375 2.5625 -18.445312 C 2.097656 -17.023438 1.867188 -15.539062 1.867188 -13.992188 C 1.867188 -12.445312 2.097656 -10.964844 2.5625 -9.542969 C 3.027344 -8.128906 3.730469 -6.828125 4.675781 -5.640625 C 5.621094 -4.449219 6.8125 -3.414062 8.242188 -2.535156 C 9.683594 -1.648438 11.382812 -0.960938 13.335938 -0.464844 C 15.300781 0.03125 17.527344 0.28125 20.023438 0.28125 Z M 20.023438 -5.359375 C 22.117188 -5.359375 23.902344 -5.601562 25.371094 -6.085938 C 26.828125 -6.566406 28.003906 -7.207031 28.902344 -8.011719 C 29.796875 -8.8125 30.449219 -9.726562 30.859375 -10.753906 C 31.28125 -11.792969 31.488281 -12.875 31.488281 -13.992188 C 31.488281 -15.125 31.28125 -16.207031 30.863281 -17.242188 C 30.449219 -18.261719 29.796875 -19.171875 28.902344 -19.972656 C 28.003906 -20.78125 26.828125 -21.421875 25.371094 -21.902344 C 23.902344 -22.386719 22.117188 -22.628906 20.023438 -22.628906 C 17.929688 -22.628906 16.148438 -22.386719 14.675781 -21.902344 C 13.222656 -21.421875 12.042969 -20.78125 11.144531 -19.972656 C 10.253906 -19.171875 9.601562 -18.261719 9.1875 -17.242188 C 8.769531 -16.207031 8.558594 -15.125 8.558594 -13.992188 C 8.558594 -12.875 8.769531 -11.792969 9.1875 -10.753906 C 9.601562 -9.726562 10.253906 -8.8125 11.144531 -8.011719 C 12.042969 -7.207031 13.222656 -6.566406 14.675781 -6.085938 C 16.148438 -5.601562 17.929688 -5.359375 20.023438 -5.359375 Z M 20.023438 -4.359375 C 17.824219 -4.359375 15.9375 -4.617188 14.363281 -5.136719 C 12.777344 -5.660156 11.480469 -6.371094 10.480469 -7.269531 C 9.472656 -8.171875 8.730469 -9.210938 8.261719 -10.382812 C 7.792969 -11.542969 7.5625 -12.746094 7.5625 -13.992188 C 7.5625 -15.253906 7.792969 -16.464844 8.261719 -17.617188 C 8.730469 -18.78125 9.472656 -19.816406 10.480469 -20.71875 C 11.480469 -21.617188 12.777344 -22.328125 14.363281 -22.851562 C 15.9375 -23.367188 17.824219 -23.628906 20.023438 -23.628906 C 22.226562 -23.628906 24.113281 -23.367188 25.683594 -22.851562 C 27.273438 -22.328125 28.566406 -21.617188 29.570312 -20.71875 C 30.578125 -19.816406 31.316406 -18.78125 31.789062 -17.617188 C 32.253906 -16.464844 32.488281 -15.253906 32.488281 -13.992188 C 32.488281 -12.746094 32.253906 -11.542969 31.789062 -10.382812 C 31.316406 -9.210938 30.578125 -8.171875 29.570312 -7.269531 C 28.566406 -6.371094 27.273438 -5.660156 25.683594 -5.136719 C 24.113281 -4.617188 22.226562 -4.359375 20.023438 -4.359375 Z M 20.023438 -4.359375 "/></g></g></g><g fill="#2b4257" fill-opacity="1"><g transform="translate(193.129577, 39.934614)"><g><path d="M 27.757812 0.226562 L 22.957031 -9.21875 L 23.402344 -9.445312 L 23.402344 -8.945312 L 13.640625 -8.945312 L 13.640625 -9.445312 L 14.140625 -9.445312 L 14.140625 -5.640625 L 13.640625 -5.640625 L 13.640625 -6.140625 L 19.527344 -6.140625 L 19.527344 0.5 L 1.257812 0.5 L 1.257812 -6.140625 L 7.144531 -6.140625 L 7.144531 -5.640625 L 6.644531 -5.640625 L 6.644531 -22.347656 L 7.144531 -22.347656 L 7.144531 -21.847656 L 1.257812 -21.847656 L 1.257812 -28.488281 L 25.527344 -28.488281 C 27.574219 -28.488281 29.328125 -28.230469 30.777344 -27.71875 C 32.25 -27.199219 33.445312 -26.480469 34.371094 -25.5625 C 35.292969 -24.644531 35.972656 -23.59375 36.402344 -22.410156 C 36.824219 -21.242188 37.035156 -20.011719 37.035156 -18.714844 C 37.035156 -17.113281 36.714844 -15.710938 36.078125 -14.511719 C 35.445312 -13.320312 34.609375 -12.332031 33.566406 -11.546875 C 32.542969 -10.773438 31.421875 -10.175781 30.199219 -9.753906 L 30.035156 -10.226562 L 30.480469 -10.453125 L 32.804688 -5.867188 L 32.359375 -5.640625 L 32.359375 -6.140625 L 38.246094 -6.140625 L 38.246094 0.5 L 27.894531 0.5 Z M 28.648438 -0.226562 L 28.203125 0 L 28.203125 -0.5 L 37.746094 -0.5 L 37.746094 0 L 37.246094 0 L 37.246094 -5.640625 L 37.746094 -5.640625 L 37.746094 -5.140625 L 32.050781 -5.140625 L 29.332031 -10.511719 L 29.875 -10.699219 C 30.996094 -11.085938 32.027344 -11.632812 32.964844 -12.34375 C 33.890625 -13.039062 34.632812 -13.917969 35.195312 -14.980469 C 35.757812 -16.03125 36.035156 -17.277344 36.035156 -18.714844 C 36.035156 -19.894531 35.84375 -21.011719 35.460938 -22.070312 C 35.082031 -23.113281 34.484375 -24.039062 33.667969 -24.851562 C 32.847656 -25.664062 31.773438 -26.304688 30.445312 -26.773438 C 29.101562 -27.25 27.460938 -27.488281 25.527344 -27.488281 L 1.757812 -27.488281 L 1.757812 -27.988281 L 2.257812 -27.988281 L 2.257812 -22.347656 L 1.757812 -22.347656 L 1.757812 -22.847656 L 7.644531 -22.847656 L 7.644531 -5.140625 L 1.757812 -5.140625 L 1.757812 -5.640625 L 2.257812 -5.640625 L 2.257812 0 L 1.757812 0 L 1.757812 -0.5 L 19.027344 -0.5 L 19.027344 0 L 18.53125 0 L 18.53125 -5.640625 L 19.027344 -5.640625 L 19.027344 -5.140625 L 13.144531 -5.140625 L 13.144531 -9.945312 L 23.707031 -9.945312 Z M 25.527344 -21.847656 L 13.640625 -21.847656 L 13.640625 -22.347656 L 14.140625 -22.347656 L 14.140625 -15.085938 L 13.640625 -15.085938 L 13.640625 -15.585938 L 25.527344 -15.585938 C 26.582031 -15.585938 27.394531 -15.730469 27.96875 -16.019531 C 28.511719 -16.296875 28.890625 -16.65625 29.109375 -17.101562 C 29.34375 -17.578125 29.457031 -18.117188 29.457031 -18.714844 C 29.457031 -19.316406 29.34375 -19.855469 29.109375 -20.332031 C 28.890625 -20.777344 28.511719 -21.136719 27.96875 -21.414062 C 27.394531 -21.703125 26.582031 -21.847656 25.527344 -21.847656 Z M 25.527344 -22.847656 C 26.738281 -22.847656 27.703125 -22.667969 28.417969 -22.304688 C 29.160156 -21.929688 29.691406 -21.417969 30.007812 -20.769531 C 30.308594 -20.15625 30.457031 -19.46875 30.457031 -18.714844 C 30.457031 -17.964844 30.308594 -17.277344 30.007812 -16.664062 C 29.691406 -16.015625 29.160156 -15.503906 28.417969 -15.128906 C 27.703125 -14.765625 26.738281 -14.585938 25.527344 -14.585938 L 13.144531 -14.585938 L 13.144531 -22.847656 Z M 25.527344 -22.847656 "/></g></g></g><g fill="#2b4257" fill-opacity="1"><g transform="translate(7.594648, 79.755641)"><g><path d="M 14.140625 -22.347656 L 14.140625 -16.472656 L 13.640625 -16.472656 L 13.640625 -16.972656 L 26.632812 -16.972656 L 26.632812 -10.527344 L 13.640625 -10.527344 L 13.640625 -11.027344 L 14.140625 -11.027344 L 14.140625 -5.640625 L 13.640625 -5.640625 L 13.640625 -6.140625 L 19.527344 -6.140625 L 19.527344 0.5 L 1.257812 0.5 L 1.257812 -6.140625 L 7.144531 -6.140625 L 7.144531 -5.640625 L 6.644531 -5.640625 L 6.644531 -22.347656 L 7.144531 -22.347656 L 7.144531 -21.847656 L 1.257812 -21.847656 L 1.257812 -28.488281 L 34.886719 -28.488281 L 34.886719 -18.9375 L 27.390625 -18.9375 L 27.390625 -22.347656 L 27.890625 -22.347656 L 27.890625 -21.847656 L 13.640625 -21.847656 L 13.640625 -22.347656 Z M 13.144531 -22.847656 L 28.390625 -22.847656 L 28.390625 -19.4375 L 27.890625 -19.4375 L 27.890625 -19.9375 L 34.390625 -19.9375 L 34.390625 -19.4375 L 33.890625 -19.4375 L 33.890625 -27.988281 L 34.390625 -27.988281 L 34.390625 -27.488281 L 1.757812 -27.488281 L 1.757812 -27.988281 L 2.257812 -27.988281 L 2.257812 -22.347656 L 1.757812 -22.347656 L 1.757812 -22.847656 L 7.644531 -22.847656 L 7.644531 -5.140625 L 1.757812 -5.140625 L 1.757812 -5.640625 L 2.257812 -5.640625 L 2.257812 0 L 1.757812 0 L 1.757812 -0.5 L 19.027344 -0.5 L 19.027344 0 L 18.53125 0 L 18.53125 -5.640625 L 19.027344 -5.640625 L 19.027344 -5.140625 L 13.144531 -5.140625 L 13.144531 -11.527344 L 26.132812 -11.527344 L 26.132812 -11.027344 L 25.632812 -11.027344 L 25.632812 -16.472656 L 26.132812 -16.472656 L 26.132812 -15.972656 L 13.144531 -15.972656 Z M 13.144531 -22.847656 "/></g></g></g><g fill="#2b4257" fill-opacity="1"><g transform="translate(43.739118, 79.755641)"><g><path d="M 37.621094 -12.707031 C 37.621094 -10.609375 37.351562 -8.710938 36.808594 -7 C 36.257812 -5.265625 35.367188 -3.777344 34.140625 -2.539062 C 32.910156 -1.296875 31.304688 -0.347656 29.316406 0.308594 C 27.351562 0.957031 24.957031 1.28125 22.132812 1.28125 C 19.308594 1.28125 16.914062 0.957031 14.949219 0.308594 C 12.960938 -0.347656 11.351562 -1.296875 10.125 -2.539062 C 8.898438 -3.777344 8.007812 -5.265625 7.457031 -7 C 6.914062 -8.710938 6.644531 -10.609375 6.644531 -12.707031 L 6.644531 -22.347656 L 7.144531 -22.347656 L 7.144531 -21.847656 L 1.257812 -21.847656 L 1.257812 -28.488281 L 19.527344 -28.488281 L 19.527344 -21.847656 L 13.640625 -21.847656 L 13.640625 -22.347656 L 14.140625 -22.347656 L 14.140625 -12.707031 C 14.140625 -11.488281 14.269531 -10.417969 14.523438 -9.492188 C 14.769531 -8.601562 15.179688 -7.851562 15.753906 -7.242188 C 16.324219 -6.636719 17.117188 -6.171875 18.132812 -5.855469 C 19.183594 -5.523438 20.519531 -5.359375 22.132812 -5.359375 C 23.746094 -5.359375 25.078125 -5.523438 26.128906 -5.855469 C 27.144531 -6.171875 27.941406 -6.636719 28.511719 -7.242188 C 29.085938 -7.851562 29.496094 -8.601562 29.742188 -9.492188 C 29.996094 -10.417969 30.121094 -11.488281 30.121094 -12.707031 L 30.121094 -22.347656 L 30.621094 -22.347656 L 30.621094 -21.847656 L 24.734375 -21.847656 L 24.734375 -28.488281 L 43.007812 -28.488281 L 43.007812 -21.847656 L 37.121094 -21.847656 L 37.121094 -22.347656 L 37.621094 -22.347656 Z M 36.621094 -12.707031 L 36.621094 -22.847656 L 42.507812 -22.847656 L 42.507812 -22.347656 L 42.007812 -22.347656 L 42.007812 -27.988281 L 42.507812 -27.988281 L 42.507812 -27.488281 L 25.234375 -27.488281 L 25.234375 -27.988281 L 25.734375 -27.988281 L 25.734375 -22.347656 L 25.234375 -22.347656 L 25.234375 -22.847656 L 31.121094 -22.847656 L 31.121094 -12.707031 C 31.121094 -11.398438 30.984375 -10.238281 30.703125 -9.226562 C 30.414062 -8.175781 29.925781 -7.285156 29.238281 -6.558594 C 28.546875 -5.824219 27.613281 -5.269531 26.429688 -4.898438 C 25.28125 -4.539062 23.847656 -4.359375 22.132812 -4.359375 C 20.414062 -4.359375 18.984375 -4.539062 17.835938 -4.898438 C 16.652344 -5.269531 15.714844 -5.824219 15.027344 -6.558594 C 14.335938 -7.285156 13.847656 -8.175781 13.5625 -9.226562 C 13.28125 -10.238281 13.144531 -11.398438 13.144531 -12.707031 L 13.144531 -22.847656 L 19.027344 -22.847656 L 19.027344 -22.347656 L 18.53125 -22.347656 L 18.53125 -27.988281 L 19.027344 -27.988281 L 19.027344 -27.488281 L 1.757812 -27.488281 L 1.757812 -27.988281 L 2.257812 -27.988281 L 2.257812 -22.347656 L 1.757812 -22.347656 L 1.757812 -22.847656 L 7.644531 -22.847656 L 7.644531 -12.707031 C 7.644531 -10.714844 7.898438 -8.914062 8.410156 -7.304688 C 8.914062 -5.722656 9.722656 -4.367188 10.835938 -3.238281 C 11.949219 -2.113281 13.425781 -1.246094 15.261719 -0.640625 C 17.125 -0.0273438 19.414062 0.28125 22.132812 0.28125 C 24.851562 0.28125 27.140625 -0.0273438 29 -0.640625 C 30.839844 -1.246094 32.3125 -2.113281 33.429688 -3.238281 C 34.542969 -4.367188 35.351562 -5.722656 35.855469 -7.304688 C 36.367188 -8.914062 36.621094 -10.714844 36.621094 -12.707031 Z M 36.621094 -12.707031 "/></g></g></g><g fill="#2b4257" fill-opacity="1"><g transform="translate(88.002432, 79.755641)"><g><path d="M 2.148438 -9.535156 L 9.144531 -9.535156 L 9.144531 -5.816406 L 8.644531 -5.816406 L 8.773438 -6.300781 L 9.671875 -6.066406 C 10.25 -5.914062 11.078125 -5.757812 12.144531 -5.597656 C 13.207031 -5.4375 14.453125 -5.359375 15.886719 -5.359375 C 18.464844 -5.359375 20.351562 -5.605469 21.554688 -6.09375 C 22.609375 -6.523438 23.136719 -7.082031 23.136719 -7.769531 C 23.136719 -8.109375 23.042969 -8.390625 22.859375 -8.601562 C 22.648438 -8.839844 22.277344 -9.058594 21.746094 -9.25 C 21.15625 -9.464844 20.355469 -9.683594 19.339844 -9.90625 C 18.308594 -10.132812 17.027344 -10.402344 15.496094 -10.714844 C 13.011719 -11.226562 10.921875 -11.773438 9.226562 -12.359375 C 7.5 -12.953125 6.113281 -13.628906 5.066406 -14.378906 C 3.988281 -15.148438 3.207031 -16.035156 2.722656 -17.035156 C 2.238281 -18.027344 2 -19.152344 2 -20.414062 C 2 -21.328125 2.148438 -22.21875 2.445312 -23.085938 C 2.746094 -23.960938 3.230469 -24.777344 3.898438 -25.535156 C 4.566406 -26.292969 5.445312 -26.953125 6.535156 -27.515625 C 7.609375 -28.070312 8.921875 -28.5 10.472656 -28.808594 C 12.007812 -29.113281 13.8125 -29.269531 15.886719 -29.269531 C 17.769531 -29.269531 19.441406 -29.171875 20.898438 -28.980469 C 22.359375 -28.789062 23.625 -28.550781 24.699219 -28.265625 C 25.777344 -27.980469 26.664062 -27.6875 27.363281 -27.394531 C 28.058594 -27.097656 28.578125 -26.851562 28.921875 -26.652344 L 29.65625 -26.226562 L 29.65625 -18.9375 L 22.160156 -18.9375 L 22.160156 -22.386719 L 22.660156 -22.386719 L 22.554688 -21.898438 L 21.679688 -22.082031 C 21.105469 -22.203125 20.316406 -22.324219 19.3125 -22.445312 C 18.308594 -22.566406 17.167969 -22.628906 15.886719 -22.628906 C 13.5625 -22.628906 11.898438 -22.402344 10.890625 -21.949219 C 10.011719 -21.554688 9.574219 -21.042969 9.574219 -20.414062 C 9.574219 -19.964844 9.785156 -19.59375 10.199219 -19.300781 C 10.710938 -18.945312 11.507812 -18.628906 12.59375 -18.351562 C 13.730469 -18.0625 15.171875 -17.742188 16.921875 -17.390625 C 19.199219 -16.945312 21.1875 -16.472656 22.878906 -15.964844 C 24.601562 -15.453125 26.03125 -14.84375 27.175781 -14.136719 C 28.355469 -13.40625 29.238281 -12.53125 29.828125 -11.5 C 30.417969 -10.464844 30.710938 -9.222656 30.710938 -7.769531 C 30.710938 -5.6875 30.101562 -3.96875 28.875 -2.613281 C 27.671875 -1.28125 25.960938 -0.292969 23.734375 0.34375 C 21.554688 0.96875 18.9375 1.28125 15.886719 1.28125 C 14.121094 1.28125 12.5 1.175781 11.035156 0.964844 C 9.566406 0.75 8.269531 0.488281 7.136719 0.167969 C 6.003906 -0.148438 5.050781 -0.46875 4.269531 -0.785156 C 3.492188 -1.105469 2.902344 -1.371094 2.496094 -1.589844 L 1.648438 -2.042969 L 1.648438 -9.535156 Z M 2.148438 -8.535156 L 2.148438 -9.035156 L 2.648438 -9.035156 L 2.648438 -2.34375 L 2.148438 -2.34375 L 2.382812 -2.78125 L 2.96875 -2.46875 C 3.34375 -2.269531 3.902344 -2.015625 4.648438 -1.710938 C 5.394531 -1.40625 6.3125 -1.101562 7.40625 -0.792969 C 8.496094 -0.488281 9.753906 -0.230469 11.175781 -0.0273438 C 12.597656 0.179688 14.167969 0.28125 15.886719 0.28125 C 18.84375 0.28125 21.371094 -0.0195312 23.457031 -0.617188 C 25.5 -1.203125 27.058594 -2.089844 28.132812 -3.28125 C 29.1875 -4.449219 29.710938 -5.945312 29.710938 -7.769531 C 29.710938 -9.046875 29.460938 -10.125 28.957031 -11.003906 C 28.453125 -11.886719 27.683594 -12.648438 26.652344 -13.285156 C 25.582031 -13.945312 24.230469 -14.519531 22.59375 -15.007812 C 20.929688 -15.503906 18.976562 -15.972656 16.726562 -16.410156 C 14.960938 -16.765625 13.5 -17.089844 12.347656 -17.382812 C 11.144531 -17.691406 10.238281 -18.058594 9.628906 -18.484375 C 8.925781 -18.972656 8.574219 -19.617188 8.574219 -20.414062 C 8.574219 -20.957031 8.746094 -21.4375 9.089844 -21.859375 C 9.40625 -22.253906 9.871094 -22.589844 10.480469 -22.863281 C 11.621094 -23.371094 13.421875 -23.628906 15.886719 -23.628906 C 17.207031 -23.628906 18.390625 -23.5625 19.429688 -23.4375 C 20.464844 -23.3125 21.285156 -23.1875 21.882812 -23.058594 L 23.160156 -22.792969 L 23.160156 -19.4375 L 22.660156 -19.4375 L 22.660156 -19.9375 L 29.160156 -19.9375 L 29.160156 -19.4375 L 28.660156 -19.4375 L 28.660156 -25.9375 L 29.160156 -25.9375 L 28.90625 -25.507812 L 28.417969 -25.789062 C 28.113281 -25.96875 27.628906 -26.195312 26.972656 -26.472656 C 26.316406 -26.75 25.476562 -27.027344 24.445312 -27.300781 C 23.410156 -27.574219 22.1875 -27.804688 20.769531 -27.988281 C 19.351562 -28.175781 17.726562 -28.269531 15.886719 -28.269531 C 13.875 -28.269531 12.136719 -28.121094 10.667969 -27.828125 C 9.210938 -27.539062 7.984375 -27.136719 6.992188 -26.625 C 6.011719 -26.121094 5.230469 -25.539062 4.648438 -24.875 C 4.066406 -24.214844 3.648438 -23.511719 3.390625 -22.761719 C 3.128906 -22 2.996094 -21.21875 2.996094 -20.414062 C 2.996094 -19.308594 3.207031 -18.328125 3.621094 -17.472656 C 4.03125 -16.625 4.707031 -15.863281 5.648438 -15.191406 C 6.617188 -14.496094 7.917969 -13.867188 9.550781 -13.304688 C 11.207031 -12.734375 13.257812 -12.195312 15.695312 -11.691406 C 17.230469 -11.378906 18.519531 -11.109375 19.554688 -10.878906 C 20.613281 -10.648438 21.457031 -10.417969 22.085938 -10.1875 C 22.78125 -9.9375 23.289062 -9.628906 23.613281 -9.257812 C 23.960938 -8.859375 24.132812 -8.359375 24.132812 -7.769531 C 24.132812 -7.1875 23.933594 -6.667969 23.535156 -6.21875 C 23.167969 -5.804688 22.632812 -5.453125 21.929688 -5.167969 C 20.609375 -4.628906 18.59375 -4.359375 15.886719 -4.359375 C 14.40625 -4.359375 13.109375 -4.441406 11.996094 -4.609375 C 10.894531 -4.773438 10.035156 -4.9375 9.417969 -5.097656 L 8.144531 -5.429688 L 8.144531 -9.035156 L 8.644531 -9.035156 L 8.644531 -8.535156 Z M 2.148438 -8.535156 "/></g></g></g><g fill="#2b4257" fill-opacity="1"><g transform="translate(120.360716, 79.755641)"><g><path d="M 7.144531 -21.847656 L 1.257812 -21.847656 L 1.257812 -28.488281 L 19.527344 -28.488281 L 19.527344 -21.847656 L 13.640625 -21.847656 L 13.640625 -22.347656 L 14.140625 -22.347656 L 14.140625 -5.640625 L 13.640625 -5.640625 L 13.640625 -6.140625 L 19.527344 -6.140625 L 19.527344 0.5 L 1.257812 0.5 L 1.257812 -6.140625 L 7.144531 -6.140625 L 7.144531 -5.640625 L 6.644531 -5.640625 L 6.644531 -22.347656 L 7.144531 -22.347656 Z M 7.644531 -22.847656 L 7.644531 -5.140625 L 1.757812 -5.140625 L 1.757812 -5.640625 L 2.257812 -5.640625 L 2.257812 0 L 1.757812 0 L 1.757812 -0.5 L 19.027344 -0.5 L 19.027344 0 L 18.53125 0 L 18.53125 -5.640625 L 19.027344 -5.640625 L 19.027344 -5.140625 L 13.144531 -5.140625 L 13.144531 -22.847656 L 19.027344 -22.847656 L 19.027344 -22.347656 L 18.53125 -22.347656 L 18.53125 -27.988281 L 19.027344 -27.988281 L 19.027344 -27.488281 L 1.757812 -27.488281 L 1.757812 -27.988281 L 2.257812 -27.988281 L 2.257812 -22.347656 L 1.757812 -22.347656 L 1.757812 -22.847656 Z M 7.644531 -22.847656 "/></g></g></g><g fill="#2b4257" fill-opacity="1"><g transform="translate(141.14573, 79.755641)"><g><path d="M 20.023438 1.28125 C 17.445312 1.28125 15.132812 1.023438 13.089844 0.503906 C 11.039062 -0.015625 9.246094 -0.746094 7.722656 -1.683594 C 6.1875 -2.625 4.910156 -3.734375 3.894531 -5.015625 C 2.875 -6.300781 2.113281 -7.707031 1.613281 -9.230469 C 1.117188 -10.753906 0.867188 -12.339844 0.867188 -13.992188 C 0.867188 -15.648438 1.117188 -17.234375 1.613281 -18.753906 C 2.113281 -20.28125 2.875 -21.6875 3.894531 -22.96875 C 4.910156 -24.253906 6.1875 -25.363281 7.722656 -26.304688 C 9.246094 -27.242188 11.039062 -27.972656 13.089844 -28.492188 C 15.132812 -29.007812 17.445312 -29.269531 20.023438 -29.269531 C 22.601562 -29.269531 24.914062 -29.007812 26.957031 -28.492188 C 29.011719 -27.972656 30.804688 -27.242188 32.335938 -26.304688 C 33.878906 -25.363281 35.152344 -24.25 36.167969 -22.96875 C 37.179688 -21.6875 37.9375 -20.28125 38.433594 -18.753906 C 38.933594 -17.234375 39.183594 -15.648438 39.183594 -13.992188 C 39.183594 -12.339844 38.933594 -10.753906 38.433594 -9.230469 C 37.933594 -7.707031 37.175781 -6.300781 36.15625 -5.015625 C 35.136719 -3.734375 33.859375 -2.625 32.328125 -1.683594 C 30.800781 -0.746094 29.011719 -0.015625 26.957031 0.503906 C 24.914062 1.023438 22.601562 1.28125 20.023438 1.28125 Z M 20.023438 0.28125 C 22.519531 0.28125 24.75 0.03125 26.714844 -0.464844 C 28.667969 -0.960938 30.363281 -1.648438 31.804688 -2.535156 C 33.238281 -3.414062 34.429688 -4.449219 35.375 -5.640625 C 36.320312 -6.828125 37.023438 -8.128906 37.484375 -9.542969 C 37.949219 -10.964844 38.183594 -12.445312 38.183594 -13.992188 C 38.183594 -15.539062 37.949219 -17.023438 37.484375 -18.445312 C 37.023438 -19.859375 36.320312 -21.160156 35.382812 -22.351562 C 34.445312 -23.539062 33.253906 -24.574219 31.816406 -25.453125 C 30.367188 -26.335938 28.667969 -27.027344 26.714844 -27.523438 C 24.75 -28.019531 22.519531 -28.269531 20.023438 -28.269531 C 17.527344 -28.269531 15.300781 -28.019531 13.335938 -27.523438 C 11.382812 -27.027344 9.683594 -26.339844 8.242188 -25.453125 C 6.8125 -24.574219 5.621094 -23.539062 4.675781 -22.347656 C 3.730469 -21.160156 3.027344 -19.859375 2.5625 -18.445312 C 2.097656 -17.023438 1.867188 -15.539062 1.867188 -13.992188 C 1.867188 -12.445312 2.097656 -10.964844 2.5625 -9.542969 C 3.027344 -8.128906 3.730469 -6.828125 4.675781 -5.640625 C 5.621094 -4.449219 6.8125 -3.414062 8.242188 -2.535156 C 9.683594 -1.648438 11.382812 -0.960938 13.335938 -0.464844 C 15.300781 0.03125 17.527344 0.28125 20.023438 0.28125 Z M 20.023438 -5.359375 C 22.117188 -5.359375 23.902344 -5.601562 25.371094 -6.085938 C 26.828125 -6.566406 28.003906 -7.207031 28.902344 -8.011719 C 29.796875 -8.8125 30.449219 -9.726562 30.859375 -10.753906 C 31.28125 -11.792969 31.488281 -12.875 31.488281 -13.992188 C 31.488281 -15.125 31.28125 -16.207031 30.863281 -17.242188 C 30.449219 -18.261719 29.796875 -19.171875 28.902344 -19.972656 C 28.003906 -20.78125 26.828125 -21.421875 25.371094 -21.902344 C 23.902344 -22.386719 22.117188 -22.628906 20.023438 -22.628906 C 17.929688 -22.628906 16.148438 -22.386719 14.675781 -21.902344 C 13.222656 -21.421875 12.042969 -20.78125 11.144531 -19.972656 C 10.253906 -19.171875 9.601562 -18.261719 9.1875 -17.242188 C 8.769531 -16.207031 8.558594 -15.125 8.558594 -13.992188 C 8.558594 -12.875 8.769531 -11.792969 9.1875 -10.753906 C 9.601562 -9.726562 10.253906 -8.8125 11.144531 -8.011719 C 12.042969 -7.207031 13.222656 -6.566406 14.675781 -6.085938 C 16.148438 -5.601562 17.929688 -5.359375 20.023438 -5.359375 Z M 20.023438 -4.359375 C 17.824219 -4.359375 15.9375 -4.617188 14.363281 -5.136719 C 12.777344 -5.660156 11.480469 -6.371094 10.480469 -7.269531 C 9.472656 -8.171875 8.730469 -9.210938 8.261719 -10.382812 C 7.792969 -11.542969 7.5625 -12.746094 7.5625 -13.992188 C 7.5625 -15.253906 7.792969 -16.464844 8.261719 -17.617188 C 8.730469 -18.78125 9.472656 -19.816406 10.480469 -20.71875 C 11.480469 -21.617188 12.777344 -22.328125 14.363281 -22.851562 C 15.9375 -23.367188 17.824219 -23.628906 20.023438 -23.628906 C 22.226562 -23.628906 24.113281 -23.367188 25.683594 -22.851562 C 27.273438 -22.328125 28.566406 -21.617188 29.570312 -20.71875 C 30.578125 -19.816406 31.316406 -18.78125 31.789062 -17.617188 C 32.253906 -16.464844 32.488281 -15.253906 32.488281 -13.992188 C 32.488281 -12.746094 32.253906 -11.542969 31.789062 -10.382812 C 31.316406 -9.210938 30.578125 -8.171875 29.570312 -7.269531 C 28.566406 -6.371094 27.273438 -5.660156 25.683594 -5.136719 C 24.113281 -4.617188 22.226562 -4.359375 20.023438 -4.359375 Z M 20.023438 -4.359375 "/></g></g></g><g fill="#2b4257" fill-opacity="1"><g transform="translate(181.19349, 79.755641)"><g><path d="M 37.453125 0.5 L 28.929688 0.5 L 13.246094 -20.035156 L 13.640625 -20.335938 L 14.140625 -20.335938 L 14.140625 -5.640625 L 13.640625 -5.640625 L 13.640625 -6.140625 L 19.527344 -6.140625 L 19.527344 0.5 L 1.257812 0.5 L 1.257812 -6.140625 L 7.144531 -6.140625 L 7.144531 -5.640625 L 6.644531 -5.640625 L 6.644531 -22.347656 L 7.144531 -22.347656 L 7.144531 -21.847656 L 1.257812 -21.847656 L 1.257812 -28.488281 L 15.664062 -28.488281 L 31.351562 -7.953125 L 30.953125 -7.652344 L 30.453125 -7.652344 L 30.453125 -22.347656 L 30.953125 -22.347656 L 30.953125 -21.847656 L 25.066406 -21.847656 L 25.066406 -28.488281 L 43.339844 -28.488281 L 43.339844 -21.847656 L 37.453125 -21.847656 L 37.453125 -22.347656 L 37.953125 -22.347656 L 37.953125 0.5 Z M 37.453125 -0.5 L 37.453125 0 L 36.953125 0 L 36.953125 -22.847656 L 42.839844 -22.847656 L 42.839844 -22.347656 L 42.339844 -22.347656 L 42.339844 -27.988281 L 42.839844 -27.988281 L 42.839844 -27.488281 L 25.566406 -27.488281 L 25.566406 -27.988281 L 26.066406 -27.988281 L 26.066406 -22.347656 L 25.566406 -22.347656 L 25.566406 -22.847656 L 31.453125 -22.847656 L 31.453125 -6.171875 L 15.019531 -27.683594 L 15.417969 -27.988281 L 15.417969 -27.488281 L 1.757812 -27.488281 L 1.757812 -27.988281 L 2.257812 -27.988281 L 2.257812 -22.347656 L 1.757812 -22.347656 L 1.757812 -22.847656 L 7.644531 -22.847656 L 7.644531 -5.140625 L 1.757812 -5.140625 L 1.757812 -5.640625 L 2.257812 -5.640625 L 2.257812 0 L 1.757812 0 L 1.757812 -0.5 L 19.027344 -0.5 L 19.027344 0 L 18.53125 0 L 18.53125 -5.640625 L 19.027344 -5.640625 L 19.027344 -5.140625 L 13.144531 -5.140625 L 13.144531 -21.8125 L 29.574219 -0.304688 L 29.179688 0 L 29.179688 -0.5 Z M 37.453125 -0.5 "/></g></g></g><g fill="#ff6600" fill-opacity="1"><g transform="translate(0.755915, 39.934614)"><g><path d="M 13.640625 -22.34375 L 13.640625 -16.46875 L 26.125 -16.46875 L 26.125 -11.03125 L 13.640625 -11.03125 L 13.640625 -5.640625 L 19.03125 -5.640625 L 19.03125 0 L 1.75 0 L 1.75 -5.640625 L 7.140625 -5.640625 L 7.140625 -22.34375 L 1.75 -22.34375 L 1.75 -27.984375 L 34.390625 -27.984375 L 34.390625 -19.4375 L 27.890625 -19.4375 L 27.890625 -22.34375 Z M 13.640625 -22.34375 "/></g></g></g><g fill="#ff6600" fill-opacity="1"><g transform="translate(36.900385, 39.934614)"><g><path d="M 7.140625 -22.34375 L 1.75 -22.34375 L 1.75 -27.984375 L 19.03125 -27.984375 L 19.03125 -22.34375 L 13.640625 -22.34375 L 13.640625 -5.640625 L 26.625 -5.640625 L 26.625 -8.546875 L 33.125 -8.546875 L 33.125 0 L 1.75 0 L 1.75 -5.640625 L 7.140625 -5.640625 Z M 7.140625 -22.34375 "/></g></g></g><g fill="#ff6600" fill-opacity="1"><g transform="translate(71.776283, 39.934614)"><g><path d="M 23.140625 0 L 23.140625 -5.640625 L 28.359375 -5.640625 L 26.953125 -8.21875 L 14.015625 -8.21875 L 12.625 -5.640625 L 17.84375 -5.640625 L 17.84375 0 L 0.578125 0 L 0.578125 -5.640625 L 5.703125 -5.640625 L 14.75 -22.34375 L 9.375 -22.34375 L 9.375 -27.984375 L 23.171875 -27.984375 L 35.265625 -5.640625 L 40.390625 -5.640625 L 40.390625 0 Z M 20.484375 -20.171875 L 16.953125 -13.65625 L 24 -13.65625 Z M 20.484375 -20.171875 "/></g></g></g><g fill="#ff6600" fill-opacity="1"><g transform="translate(112.760833, 39.934614)"><g><path d="M 20.15625 -7.8125 L 27.734375 -22.34375 L 22.46875 -22.34375 L 22.46875 -27.984375 L 39.734375 -27.984375 L 39.734375 -22.34375 L 34.625 -22.34375 L 22.828125 0 L 17.484375 0 L 5.671875 -22.34375 L 0.578125 -22.34375 L 0.578125 -27.984375 L 17.859375 -27.984375 L 17.859375 -22.34375 L 12.5625 -22.34375 Z M 20.15625 -7.8125 "/></g></g></g><g fill="#ff6600" fill-opacity="1"><g transform="translate(153.081828, 39.934614)"><g><path d="M 20.015625 0.78125 C 17.484375 0.78125 15.210938 0.523438 13.203125 0.015625 C 11.203125 -0.484375 9.457031 -1.1875 7.96875 -2.09375 C 6.488281 -3.007812 5.257812 -4.085938 4.28125 -5.328125 C 3.300781 -6.566406 2.566406 -7.921875 2.078125 -9.390625 C 1.597656 -10.859375 1.359375 -12.394531 1.359375 -14 C 1.359375 -15.59375 1.597656 -17.125 2.078125 -18.59375 C 2.566406 -20.0625 3.300781 -21.414062 4.28125 -22.65625 C 5.257812 -23.894531 6.488281 -24.96875 7.96875 -25.875 C 9.457031 -26.789062 11.203125 -27.5 13.203125 -28 C 15.210938 -28.507812 17.484375 -28.765625 20.015625 -28.765625 C 22.554688 -28.765625 24.828125 -28.507812 26.828125 -28 C 28.835938 -27.5 30.585938 -26.789062 32.078125 -25.875 C 33.566406 -24.96875 34.796875 -23.894531 35.765625 -22.65625 C 36.742188 -21.414062 37.472656 -20.0625 37.953125 -18.59375 C 38.441406 -17.125 38.6875 -15.59375 38.6875 -14 C 38.6875 -12.394531 38.441406 -10.859375 37.953125 -9.390625 C 37.472656 -7.921875 36.742188 -6.566406 35.765625 -5.328125 C 34.785156 -4.085938 33.550781 -3.007812 32.0625 -2.09375 C 30.582031 -1.1875 28.835938 -0.484375 26.828125 0.015625 C 24.828125 0.523438 22.554688 0.78125 20.015625 0.78125 Z M 20.015625 -4.859375 C 22.171875 -4.859375 24.007812 -5.109375 25.53125 -5.609375 C 27.050781 -6.109375 28.285156 -6.785156 29.234375 -7.640625 C 30.179688 -8.492188 30.875 -9.46875 31.3125 -10.5625 C 31.757812 -11.664062 31.984375 -12.8125 31.984375 -14 C 31.984375 -15.1875 31.757812 -16.328125 31.3125 -17.421875 C 30.875 -18.515625 30.179688 -19.488281 29.234375 -20.34375 C 28.285156 -21.195312 27.050781 -21.875 25.53125 -22.375 C 24.007812 -22.875 22.171875 -23.125 20.015625 -23.125 C 17.867188 -23.125 16.035156 -22.875 14.515625 -22.375 C 12.992188 -21.875 11.757812 -21.195312 10.8125 -20.34375 C 9.863281 -19.488281 9.164062 -18.515625 8.71875 -17.421875 C 8.28125 -16.328125 8.0625 -15.1875 8.0625 -14 C 8.0625 -12.8125 8.28125 -11.664062 8.71875 -10.5625 C 9.164062 -9.46875 9.863281 -8.492188 10.8125 -7.640625 C 11.757812 -6.785156 12.992188 -6.109375 14.515625 -5.609375 C 16.035156 -5.109375 17.867188 -4.859375 20.015625 -4.859375 Z M 20.015625 -4.859375 "/></g></g></g><g fill="#ff6600" fill-opacity="1"><g transform="translate(193.129577, 39.934614)"><g><path d="M 28.203125 0 L 23.40625 -9.453125 L 13.640625 -9.453125 L 13.640625 -5.640625 L 19.03125 -5.640625 L 19.03125 0 L 1.75 0 L 1.75 -5.640625 L 7.140625 -5.640625 L 7.140625 -22.34375 L 1.75 -22.34375 L 1.75 -27.984375 L 25.53125 -27.984375 C 27.519531 -27.984375 29.210938 -27.734375 30.609375 -27.234375 C 32.003906 -26.742188 33.140625 -26.066406 34.015625 -25.203125 C 34.890625 -24.335938 35.523438 -23.347656 35.921875 -22.234375 C 36.328125 -21.117188 36.53125 -19.945312 36.53125 -18.71875 C 36.53125 -17.195312 36.226562 -15.875 35.625 -14.75 C 35.03125 -13.625 34.242188 -12.6875 33.265625 -11.9375 C 32.285156 -11.195312 31.207031 -10.625 30.03125 -10.21875 L 32.359375 -5.640625 L 37.75 -5.640625 L 37.75 0 Z M 25.53125 -22.34375 L 13.640625 -22.34375 L 13.640625 -15.078125 L 25.53125 -15.078125 C 26.65625 -15.078125 27.539062 -15.238281 28.1875 -15.5625 C 28.832031 -15.894531 29.285156 -16.332031 29.546875 -16.875 C 29.816406 -17.425781 29.953125 -18.039062 29.953125 -18.71875 C 29.953125 -19.394531 29.816406 -20.003906 29.546875 -20.546875 C 29.285156 -21.097656 28.832031 -21.535156 28.1875 -21.859375 C 27.539062 -22.179688 26.65625 -22.34375 25.53125 -22.34375 Z M 25.53125 -22.34375 "/></g></g></g><g fill="#ff6600" fill-opacity="1"><g transform="translate(7.594648, 79.755641)"><g><path d="M 13.640625 -22.34375 L 13.640625 -16.46875 L 26.125 -16.46875 L 26.125 -11.03125 L 13.640625 -11.03125 L 13.640625 -5.640625 L 19.03125 -5.640625 L 19.03125 0 L 1.75 0 L 1.75 -5.640625 L 7.140625 -5.640625 L 7.140625 -22.34375 L 1.75 -22.34375 L 1.75 -27.984375 L 34.390625 -27.984375 L 34.390625 -19.4375 L 27.890625 -19.4375 L 27.890625 -22.34375 Z M 13.640625 -22.34375 "/></g></g></g><g fill="#ff6600" fill-opacity="1"><g transform="translate(43.739118, 79.755641)"><g><path d="M 37.125 -12.703125 C 37.125 -10.660156 36.859375 -8.8125 36.328125 -7.15625 C 35.796875 -5.5 34.945312 -4.078125 33.78125 -2.890625 C 32.613281 -1.703125 31.070312 -0.789062 29.15625 -0.15625 C 27.238281 0.46875 24.894531 0.78125 22.125 0.78125 C 19.351562 0.78125 17.007812 0.46875 15.09375 -0.15625 C 13.1875 -0.789062 11.644531 -1.703125 10.46875 -2.890625 C 9.300781 -4.078125 8.453125 -5.5 7.921875 -7.15625 C 7.398438 -8.8125 7.140625 -10.660156 7.140625 -12.703125 L 7.140625 -22.34375 L 1.75 -22.34375 L 1.75 -27.984375 L 19.03125 -27.984375 L 19.03125 -22.34375 L 13.640625 -22.34375 L 13.640625 -12.703125 C 13.640625 -11.441406 13.769531 -10.328125 14.03125 -9.359375 C 14.300781 -8.390625 14.75 -7.566406 15.375 -6.890625 C 16.007812 -6.222656 16.878906 -5.71875 17.984375 -5.375 C 19.085938 -5.03125 20.46875 -4.859375 22.125 -4.859375 C 23.789062 -4.859375 25.171875 -5.03125 26.265625 -5.375 C 27.367188 -5.71875 28.238281 -6.222656 28.875 -6.890625 C 29.507812 -7.566406 29.957031 -8.390625 30.21875 -9.359375 C 30.488281 -10.328125 30.625 -11.441406 30.625 -12.703125 L 30.625 -22.34375 L 25.234375 -22.34375 L 25.234375 -27.984375 L 42.5 -27.984375 L 42.5 -22.34375 L 37.125 -22.34375 Z M 37.125 -12.703125 "/></g></g></g><g fill="#ff6600" fill-opacity="1"><g transform="translate(88.002432, 79.755641)"><g><path d="M 2.140625 -9.03125 L 8.640625 -9.03125 L 8.640625 -5.8125 C 8.640625 -5.8125 8.9375 -5.734375 9.53125 -5.578125 C 10.132812 -5.421875 10.976562 -5.257812 12.0625 -5.09375 C 13.15625 -4.9375 14.429688 -4.859375 15.890625 -4.859375 C 18.523438 -4.859375 20.472656 -5.113281 21.734375 -5.625 C 23.003906 -6.144531 23.640625 -6.859375 23.640625 -7.765625 C 23.640625 -8.234375 23.503906 -8.617188 23.234375 -8.921875 C 22.960938 -9.234375 22.519531 -9.5 21.90625 -9.71875 C 21.300781 -9.9375 20.476562 -10.160156 19.4375 -10.390625 C 18.40625 -10.617188 17.125 -10.890625 15.59375 -11.203125 C 13.132812 -11.710938 11.066406 -12.253906 9.390625 -12.828125 C 7.710938 -13.410156 6.367188 -14.0625 5.359375 -14.78125 C 4.347656 -15.5 3.617188 -16.320312 3.171875 -17.25 C 2.722656 -18.175781 2.5 -19.226562 2.5 -20.40625 C 2.5 -21.269531 2.640625 -22.109375 2.921875 -22.921875 C 3.203125 -23.734375 3.648438 -24.492188 4.265625 -25.203125 C 4.890625 -25.910156 5.71875 -26.53125 6.75 -27.0625 C 7.789062 -27.601562 9.0625 -28.019531 10.5625 -28.3125 C 12.070312 -28.613281 13.847656 -28.765625 15.890625 -28.765625 C 17.742188 -28.765625 19.390625 -28.671875 20.828125 -28.484375 C 22.265625 -28.296875 23.507812 -28.0625 24.5625 -27.78125 C 25.625 -27.5 26.492188 -27.210938 27.171875 -26.921875 C 27.847656 -26.640625 28.347656 -26.40625 28.671875 -26.21875 C 28.992188 -26.03125 29.15625 -25.9375 29.15625 -25.9375 L 29.15625 -19.4375 L 22.65625 -19.4375 L 22.65625 -22.390625 C 22.65625 -22.390625 22.363281 -22.445312 21.78125 -22.5625 C 21.195312 -22.6875 20.394531 -22.8125 19.375 -22.9375 C 18.351562 -23.0625 17.191406 -23.125 15.890625 -23.125 C 13.492188 -23.125 11.757812 -22.882812 10.6875 -22.40625 C 9.613281 -21.925781 9.078125 -21.257812 9.078125 -20.40625 C 9.078125 -19.789062 9.351562 -19.285156 9.90625 -18.890625 C 10.46875 -18.503906 11.320312 -18.160156 12.46875 -17.859375 C 13.613281 -17.566406 15.066406 -17.25 16.828125 -16.90625 C 19.085938 -16.457031 21.054688 -15.984375 22.734375 -15.484375 C 24.410156 -14.984375 25.800781 -14.390625 26.90625 -13.703125 C 28.019531 -13.023438 28.847656 -12.207031 29.390625 -11.25 C 29.929688 -10.289062 30.203125 -9.128906 30.203125 -7.765625 C 30.203125 -5.816406 29.632812 -4.207031 28.5 -2.9375 C 27.363281 -1.675781 25.726562 -0.738281 23.59375 -0.125 C 21.457031 0.476562 18.890625 0.78125 15.890625 0.78125 C 14.140625 0.78125 12.539062 0.675781 11.09375 0.46875 C 9.65625 0.257812 8.378906 0 7.265625 -0.3125 C 6.148438 -0.625 5.210938 -0.9375 4.453125 -1.25 C 3.691406 -1.5625 3.113281 -1.820312 2.71875 -2.03125 C 2.332031 -2.238281 2.140625 -2.34375 2.140625 -2.34375 Z M 2.140625 -9.03125 "/></g></g></g><g fill="#ff6600" fill-opacity="1"><g transform="translate(120.360716, 79.755641)"><g><path d="M 7.140625 -22.34375 L 1.75 -22.34375 L 1.75 -27.984375 L 19.03125 -27.984375 L 19.03125 -22.34375 L 13.640625 -22.34375 L 13.640625 -5.640625 L 19.03125 -5.640625 L 19.03125 0 L 1.75 0 L 1.75 -5.640625 L 7.140625 -5.640625 Z M 7.140625 -22.34375 "/></g></g></g><g fill="#ff6600" fill-opacity="1"><g transform="translate(141.14573, 79.755641)"><g><path d="M 20.015625 0.78125 C 17.484375 0.78125 15.210938 0.523438 13.203125 0.015625 C 11.203125 -0.484375 9.457031 -1.1875 7.96875 -2.09375 C 6.488281 -3.007812 5.257812 -4.085938 4.28125 -5.328125 C 3.300781 -6.566406 2.566406 -7.921875 2.078125 -9.390625 C 1.597656 -10.859375 1.359375 -12.394531 1.359375 -14 C 1.359375 -15.59375 1.597656 -17.125 2.078125 -18.59375 C 2.566406 -20.0625 3.300781 -21.414062 4.28125 -22.65625 C 5.257812 -23.894531 6.488281 -24.96875 7.96875 -25.875 C 9.457031 -26.789062 11.203125 -27.5 13.203125 -28 C 15.210938 -28.507812 17.484375 -28.765625 20.015625 -28.765625 C 22.554688 -28.765625 24.828125 -28.507812 26.828125 -28 C 28.835938 -27.5 30.585938 -26.789062 32.078125 -25.875 C 33.566406 -24.96875 34.796875 -23.894531 35.765625 -22.65625 C 36.742188 -21.414062 37.472656 -20.0625 37.953125 -18.59375 C 38.441406 -17.125 38.6875 -15.59375 38.6875 -14 C 38.6875 -12.394531 38.441406 -10.859375 37.953125 -9.390625 C 37.472656 -7.921875 36.742188 -6.566406 35.765625 -5.328125 C 34.785156 -4.085938 33.550781 -3.007812 32.0625 -2.09375 C 30.582031 -1.1875 28.835938 -0.484375 26.828125 0.015625 C 24.828125 0.523438 22.554688 0.78125 20.015625 0.78125 Z M 20.015625 -4.859375 C 22.171875 -4.859375 24.007812 -5.109375 25.53125 -5.609375 C 27.050781 -6.109375 28.285156 -6.785156 29.234375 -7.640625 C 30.179688 -8.492188 30.875 -9.46875 31.3125 -10.5625 C 31.757812 -11.664062 31.984375 -12.8125 31.984375 -14 C 31.984375 -15.1875 31.757812 -16.328125 31.3125 -17.421875 C 30.875 -18.515625 30.179688 -19.488281 29.234375 -20.34375 C 28.285156 -21.195312 27.050781 -21.875 25.53125 -22.375 C 24.007812 -22.875 22.171875 -23.125 20.015625 -23.125 C 17.867188 -23.125 16.035156 -22.875 14.515625 -22.375 C 12.992188 -21.875 11.757812 -21.195312 10.8125 -20.34375 C 9.863281 -19.488281 9.164062 -18.515625 8.71875 -17.421875 C 8.28125 -16.328125 8.0625 -15.1875 8.0625 -14 C 8.0625 -12.8125 8.28125 -11.664062 8.71875 -10.5625 C 9.164062 -9.46875 9.863281 -8.492188 10.8125 -7.640625 C 11.757812 -6.785156 12.992188 -6.109375 14.515625 -5.609375 C 16.035156 -5.109375 17.867188 -4.859375 20.015625 -4.859375 Z M 20.015625 -4.859375 "/></g></g></g><g fill="#ff6600" fill-opacity="1"><g transform="translate(181.19349, 79.755641)"><g><path d="M 37.453125 0 L 29.171875 0 L 13.640625 -20.328125 L 13.640625 -5.640625 L 19.03125 -5.640625 L 19.03125 0 L 1.75 0 L 1.75 -5.640625 L 7.140625 -5.640625 L 7.140625 -22.34375 L 1.75 -22.34375 L 1.75 -27.984375 L 15.421875 -27.984375 L 30.953125 -7.65625 L 30.953125 -22.34375 L 25.5625 -22.34375 L 25.5625 -27.984375 L 42.84375 -27.984375 L 42.84375 -22.34375 L 37.453125 -22.34375 Z M 37.453125 0 "/></g></g></g></g></g></g><g fill="#2b4257" fill-opacity="1"><g transform="translate(148.691161, 135.578033)"><g><path d="M 9.25 0.140625 L 3.125 -8.5625 L 3.078125 -8.5625 L 3.078125 -2.640625 C 3.078125 -2.179688 3.09375 -1.816406 3.125 -1.546875 C 3.15625 -1.273438 3.222656 -1.066406 3.328125 -0.921875 C 3.429688 -0.773438 3.578125 -0.675781 3.765625 -0.625 C 3.960938 -0.582031 4.210938 -0.554688 4.515625 -0.546875 L 4.515625 0 L 0.40625 0 L 0.40625 -0.546875 C 0.75 -0.554688 1.023438 -0.585938 1.234375 -0.640625 C 1.441406 -0.691406 1.601562 -0.785156 1.71875 -0.921875 C 1.832031 -1.054688 1.90625 -1.25 1.9375 -1.5 C 1.976562 -1.757812 2 -2.101562 2 -2.53125 L 2 -8.078125 C 2 -8.472656 1.976562 -8.796875 1.9375 -9.046875 C 1.90625 -9.296875 1.835938 -9.492188 1.734375 -9.640625 C 1.640625 -9.785156 1.492188 -9.890625 1.296875 -9.953125 C 1.109375 -10.015625 0.859375 -10.054688 0.546875 -10.078125 L 0.546875 -10.625 L 4.40625 -10.625 L 9.96875 -2.65625 L 10.015625 -2.65625 L 10.015625 -7.984375 C 10.015625 -8.441406 10 -8.804688 9.96875 -9.078125 C 9.9375 -9.347656 9.867188 -9.554688 9.765625 -9.703125 C 9.660156 -9.847656 9.507812 -9.941406 9.3125 -9.984375 C 9.125 -10.035156 8.878906 -10.066406 8.578125 -10.078125 L 8.578125 -10.625 L 12.671875 -10.625 L 12.671875 -10.078125 C 12.335938 -10.066406 12.066406 -10.035156 11.859375 -9.984375 C 11.648438 -9.929688 11.488281 -9.835938 11.375 -9.703125 C 11.257812 -9.566406 11.179688 -9.367188 11.140625 -9.109375 C 11.109375 -8.847656 11.09375 -8.503906 11.09375 -8.078125 L 11.09375 0.140625 Z M 9.25 0.140625 "/></g></g></g><g fill="#2b4257" fill-opacity="1"><g transform="translate(163.73068, 135.578033)"><g><path d="M 3.953125 -5.875 C 4.546875 -5.875 5.019531 -5.890625 5.375 -5.921875 C 5.738281 -5.960938 6.019531 -6.039062 6.21875 -6.15625 C 6.414062 -6.269531 6.554688 -6.4375 6.640625 -6.65625 C 6.722656 -6.882812 6.785156 -7.1875 6.828125 -7.5625 L 7.34375 -7.5625 L 7.34375 -3.515625 L 6.828125 -3.515625 C 6.773438 -3.878906 6.703125 -4.171875 6.609375 -4.390625 C 6.515625 -4.617188 6.363281 -4.789062 6.15625 -4.90625 C 5.957031 -5.019531 5.6875 -5.09375 5.34375 -5.125 C 5 -5.15625 4.535156 -5.171875 3.953125 -5.171875 L 3.953125 -2.328125 C 3.953125 -2.035156 3.988281 -1.785156 4.0625 -1.578125 C 4.144531 -1.378906 4.28125 -1.21875 4.46875 -1.09375 C 4.65625 -0.96875 4.898438 -0.878906 5.203125 -0.828125 C 5.503906 -0.785156 5.875 -0.765625 6.3125 -0.765625 C 6.84375 -0.765625 7.285156 -0.800781 7.640625 -0.875 C 8.003906 -0.945312 8.304688 -1.070312 8.546875 -1.25 C 8.785156 -1.4375 8.976562 -1.679688 9.125 -1.984375 C 9.28125 -2.296875 9.40625 -2.6875 9.5 -3.15625 L 10.0625 -3.15625 L 9.84375 0 L 0.484375 0 L 0.484375 -0.546875 C 0.785156 -0.554688 1.03125 -0.582031 1.21875 -0.625 C 1.414062 -0.675781 1.566406 -0.753906 1.671875 -0.859375 C 1.773438 -0.972656 1.84375 -1.128906 1.875 -1.328125 C 1.914062 -1.535156 1.9375 -1.800781 1.9375 -2.125 L 1.9375 -8.5 C 1.9375 -8.820312 1.914062 -9.082031 1.875 -9.28125 C 1.84375 -9.476562 1.78125 -9.632812 1.6875 -9.75 C 1.601562 -9.863281 1.472656 -9.941406 1.296875 -9.984375 C 1.128906 -10.023438 0.910156 -10.054688 0.640625 -10.078125 L 0.640625 -10.625 L 9.359375 -10.625 L 9.453125 -7.921875 L 8.859375 -7.921875 C 8.804688 -8.304688 8.71875 -8.625 8.59375 -8.875 C 8.476562 -9.125 8.3125 -9.328125 8.09375 -9.484375 C 7.882812 -9.640625 7.613281 -9.742188 7.28125 -9.796875 C 6.945312 -9.859375 6.535156 -9.890625 6.046875 -9.890625 L 4.484375 -9.890625 C 4.242188 -9.890625 4.09375 -9.859375 4.03125 -9.796875 C 3.976562 -9.742188 3.953125 -9.601562 3.953125 -9.375 Z M 3.953125 -5.875 "/></g></g></g><g fill="#2b4257" fill-opacity="1"><g transform="translate(176.341801, 135.578033)"><g><path d="M 10.015625 -1.53125 C 10.242188 -1.21875 10.507812 -0.972656 10.8125 -0.796875 C 11.125 -0.628906 11.46875 -0.546875 11.84375 -0.546875 L 11.84375 0 L 6.703125 0 L 6.703125 -0.546875 C 6.929688 -0.546875 7.117188 -0.554688 7.265625 -0.578125 C 7.410156 -0.597656 7.519531 -0.617188 7.59375 -0.640625 C 7.675781 -0.671875 7.726562 -0.707031 7.75 -0.75 C 7.769531 -0.800781 7.78125 -0.851562 7.78125 -0.90625 C 7.78125 -0.96875 7.769531 -1.023438 7.75 -1.078125 C 7.726562 -1.140625 7.6875 -1.21875 7.625 -1.3125 C 7.570312 -1.40625 7.5 -1.519531 7.40625 -1.65625 C 7.3125 -1.789062 7.191406 -1.960938 7.046875 -2.171875 L 5.578125 -4.265625 L 4.625 -3.09375 C 4.414062 -2.84375 4.21875 -2.609375 4.03125 -2.390625 C 3.84375 -2.179688 3.671875 -1.984375 3.515625 -1.796875 C 3.367188 -1.617188 3.25 -1.457031 3.15625 -1.3125 C 3.0625 -1.175781 3.015625 -1.050781 3.015625 -0.9375 C 3.015625 -0.789062 3.109375 -0.6875 3.296875 -0.625 C 3.484375 -0.570312 3.785156 -0.546875 4.203125 -0.546875 L 4.203125 0 L -0.03125 0 L -0.03125 -0.546875 C 0.21875 -0.546875 0.429688 -0.554688 0.609375 -0.578125 C 0.796875 -0.609375 0.957031 -0.65625 1.09375 -0.71875 C 1.238281 -0.78125 1.375 -0.867188 1.5 -0.984375 C 1.625 -1.097656 1.765625 -1.25 1.921875 -1.4375 L 4.9375 -5.125 L 1.71875 -9.28125 C 1.476562 -9.601562 1.234375 -9.816406 0.984375 -9.921875 C 0.734375 -10.023438 0.453125 -10.078125 0.140625 -10.078125 L 0.140625 -10.625 L 5.328125 -10.625 L 5.328125 -10.078125 C 4.992188 -10.078125 4.753906 -10.035156 4.609375 -9.953125 C 4.460938 -9.867188 4.390625 -9.742188 4.390625 -9.578125 C 4.390625 -9.328125 4.523438 -9.019531 4.796875 -8.65625 L 6.21875 -6.6875 L 8 -8.8125 C 8.132812 -8.976562 8.234375 -9.128906 8.296875 -9.265625 C 8.359375 -9.398438 8.390625 -9.523438 8.390625 -9.640625 C 8.390625 -9.703125 8.375 -9.757812 8.34375 -9.8125 C 8.320312 -9.875 8.269531 -9.921875 8.1875 -9.953125 C 8.113281 -9.992188 8 -10.023438 7.84375 -10.046875 C 7.695312 -10.066406 7.503906 -10.078125 7.265625 -10.078125 L 7.265625 -10.625 L 11.375 -10.625 L 11.375 -10.078125 C 10.988281 -10.078125 10.691406 -10.046875 10.484375 -9.984375 C 10.273438 -9.929688 10.101562 -9.820312 9.96875 -9.65625 L 6.890625 -5.84375 Z M 10.015625 -1.53125 "/></g></g></g><g fill="#2b4257" fill-opacity="1"><g transform="translate(190.111929, 135.578033)"><g><path d="M 11.25 -7.59375 L 10.65625 -7.59375 C 10.625 -8.039062 10.554688 -8.410156 10.453125 -8.703125 C 10.347656 -9.003906 10.195312 -9.242188 10 -9.421875 C 9.8125 -9.609375 9.578125 -9.734375 9.296875 -9.796875 C 9.023438 -9.867188 8.703125 -9.90625 8.328125 -9.90625 C 7.972656 -9.90625 7.6875 -9.894531 7.46875 -9.875 C 7.25 -9.863281 7.082031 -9.84375 6.96875 -9.8125 C 6.851562 -9.78125 6.773438 -9.738281 6.734375 -9.6875 C 6.703125 -9.632812 6.6875 -9.566406 6.6875 -9.484375 L 6.6875 -2.25 C 6.6875 -1.957031 6.707031 -1.703125 6.75 -1.484375 C 6.789062 -1.273438 6.875 -1.101562 7 -0.96875 C 7.132812 -0.832031 7.328125 -0.726562 7.578125 -0.65625 C 7.828125 -0.59375 8.148438 -0.554688 8.546875 -0.546875 L 8.546875 0 L 2.765625 0 L 2.765625 -0.546875 C 3.179688 -0.554688 3.515625 -0.59375 3.765625 -0.65625 C 4.015625 -0.726562 4.207031 -0.832031 4.34375 -0.96875 C 4.476562 -1.101562 4.5625 -1.273438 4.59375 -1.484375 C 4.632812 -1.703125 4.65625 -1.957031 4.65625 -2.25 L 4.65625 -9.484375 C 4.65625 -9.566406 4.640625 -9.632812 4.609375 -9.6875 C 4.578125 -9.738281 4.507812 -9.78125 4.40625 -9.8125 C 4.3125 -9.84375 4.171875 -9.863281 3.984375 -9.875 C 3.796875 -9.894531 3.550781 -9.90625 3.25 -9.90625 C 2.914062 -9.90625 2.59375 -9.890625 2.28125 -9.859375 C 1.976562 -9.828125 1.710938 -9.734375 1.484375 -9.578125 C 1.253906 -9.429688 1.066406 -9.203125 0.921875 -8.890625 C 0.785156 -8.585938 0.710938 -8.15625 0.703125 -7.59375 L 0.171875 -7.59375 L 0.296875 -10.625 L 11.109375 -10.625 Z M 11.25 -7.59375 "/></g></g></g><g fill="#2b4257" fill-opacity="1"><g transform="translate(203.592306, 135.578033)"><g><path d="M 0.90625 -3.359375 L 0.90625 -4.640625 L 5.390625 -4.640625 L 5.390625 -3.359375 Z M 0.90625 -3.359375 "/></g></g></g><g fill="#2b4257" fill-opacity="1"><g transform="translate(211.967529, 135.578033)"><g><path d="M 6.046875 0.140625 C 5.210938 0.140625 4.460938 0.0195312 3.796875 -0.21875 C 3.128906 -0.46875 2.5625 -0.816406 2.09375 -1.265625 C 1.632812 -1.722656 1.28125 -2.273438 1.03125 -2.921875 C 0.78125 -3.578125 0.65625 -4.3125 0.65625 -5.125 C 0.65625 -5.957031 0.789062 -6.71875 1.0625 -7.40625 C 1.332031 -8.101562 1.707031 -8.703125 2.1875 -9.203125 C 2.675781 -9.703125 3.257812 -10.085938 3.9375 -10.359375 C 4.625 -10.628906 5.378906 -10.765625 6.203125 -10.765625 C 6.773438 -10.765625 7.316406 -10.6875 7.828125 -10.53125 C 8.347656 -10.375 8.90625 -10.117188 9.5 -9.765625 L 9.765625 -10.625 L 10.265625 -10.625 L 10.265625 -7.140625 L 9.578125 -7.140625 C 9.390625 -8.003906 9.015625 -8.671875 8.453125 -9.140625 C 7.898438 -9.617188 7.207031 -9.859375 6.375 -9.859375 C 5.3125 -9.859375 4.488281 -9.453125 3.90625 -8.640625 C 3.320312 -7.828125 3.03125 -6.691406 3.03125 -5.234375 C 3.03125 -3.796875 3.316406 -2.691406 3.890625 -1.921875 C 4.460938 -1.160156 5.289062 -0.78125 6.375 -0.78125 C 7.15625 -0.78125 7.765625 -0.976562 8.203125 -1.375 C 8.640625 -1.78125 8.859375 -2.335938 8.859375 -3.046875 C 8.859375 -3.472656 8.742188 -3.785156 8.515625 -3.984375 C 8.296875 -4.179688 7.925781 -4.300781 7.40625 -4.34375 L 7.40625 -4.890625 L 11.875 -4.890625 L 11.875 -4.34375 C 11.425781 -4.34375 11.113281 -4.242188 10.9375 -4.046875 C 10.757812 -3.847656 10.671875 -3.492188 10.671875 -2.984375 L 10.671875 -1.140625 C 10.472656 -1.140625 10.304688 -1.132812 10.171875 -1.125 C 10.035156 -1.113281 9.898438 -1.085938 9.765625 -1.046875 C 9.628906 -1.003906 9.476562 -0.9375 9.3125 -0.84375 C 9.144531 -0.75 8.9375 -0.628906 8.6875 -0.484375 C 7.976562 -0.0664062 7.097656 0.140625 6.046875 0.140625 Z M 6.046875 0.140625 "/></g></g></g><g fill="#2b4257" fill-opacity="1"><g transform="translate(226.123994, 135.578033)"><g><path d="M 3.953125 -5.875 C 4.546875 -5.875 5.019531 -5.890625 5.375 -5.921875 C 5.738281 -5.960938 6.019531 -6.039062 6.21875 -6.15625 C 6.414062 -6.269531 6.554688 -6.4375 6.640625 -6.65625 C 6.722656 -6.882812 6.785156 -7.1875 6.828125 -7.5625 L 7.34375 -7.5625 L 7.34375 -3.515625 L 6.828125 -3.515625 C 6.773438 -3.878906 6.703125 -4.171875 6.609375 -4.390625 C 6.515625 -4.617188 6.363281 -4.789062 6.15625 -4.90625 C 5.957031 -5.019531 5.6875 -5.09375 5.34375 -5.125 C 5 -5.15625 4.535156 -5.171875 3.953125 -5.171875 L 3.953125 -2.328125 C 3.953125 -2.035156 3.988281 -1.785156 4.0625 -1.578125 C 4.144531 -1.378906 4.28125 -1.21875 4.46875 -1.09375 C 4.65625 -0.96875 4.898438 -0.878906 5.203125 -0.828125 C 5.503906 -0.785156 5.875 -0.765625 6.3125 -0.765625 C 6.84375 -0.765625 7.285156 -0.800781 7.640625 -0.875 C 8.003906 -0.945312 8.304688 -1.070312 8.546875 -1.25 C 8.785156 -1.4375 8.976562 -1.679688 9.125 -1.984375 C 9.28125 -2.296875 9.40625 -2.6875 9.5 -3.15625 L 10.0625 -3.15625 L 9.84375 0 L 0.484375 0 L 0.484375 -0.546875 C 0.785156 -0.554688 1.03125 -0.582031 1.21875 -0.625 C 1.414062 -0.675781 1.566406 -0.753906 1.671875 -0.859375 C 1.773438 -0.972656 1.84375 -1.128906 1.875 -1.328125 C 1.914062 -1.535156 1.9375 -1.800781 1.9375 -2.125 L 1.9375 -8.5 C 1.9375 -8.820312 1.914062 -9.082031 1.875 -9.28125 C 1.84375 -9.476562 1.78125 -9.632812 1.6875 -9.75 C 1.601562 -9.863281 1.472656 -9.941406 1.296875 -9.984375 C 1.128906 -10.023438 0.910156 -10.054688 0.640625 -10.078125 L 0.640625 -10.625 L 9.359375 -10.625 L 9.453125 -7.921875 L 8.859375 -7.921875 C 8.804688 -8.304688 8.71875 -8.625 8.59375 -8.875 C 8.476562 -9.125 8.3125 -9.328125 8.09375 -9.484375 C 7.882812 -9.640625 7.613281 -9.742188 7.28125 -9.796875 C 6.945312 -9.859375 6.535156 -9.890625 6.046875 -9.890625 L 4.484375 -9.890625 C 4.242188 -9.890625 4.09375 -9.859375 4.03125 -9.796875 C 3.976562 -9.742188 3.953125 -9.601562 3.953125 -9.375 Z M 3.953125 -5.875 "/></g></g></g><g fill="#2b4257" fill-opacity="1"><g transform="translate(238.73511, 135.578033)"><g><path d="M 9.25 0.140625 L 3.125 -8.5625 L 3.078125 -8.5625 L 3.078125 -2.640625 C 3.078125 -2.179688 3.09375 -1.816406 3.125 -1.546875 C 3.15625 -1.273438 3.222656 -1.066406 3.328125 -0.921875 C 3.429688 -0.773438 3.578125 -0.675781 3.765625 -0.625 C 3.960938 -0.582031 4.210938 -0.554688 4.515625 -0.546875 L 4.515625 0 L 0.40625 0 L 0.40625 -0.546875 C 0.75 -0.554688 1.023438 -0.585938 1.234375 -0.640625 C 1.441406 -0.691406 1.601562 -0.785156 1.71875 -0.921875 C 1.832031 -1.054688 1.90625 -1.25 1.9375 -1.5 C 1.976562 -1.757812 2 -2.101562 2 -2.53125 L 2 -8.078125 C 2 -8.472656 1.976562 -8.796875 1.9375 -9.046875 C 1.90625 -9.296875 1.835938 -9.492188 1.734375 -9.640625 C 1.640625 -9.785156 1.492188 -9.890625 1.296875 -9.953125 C 1.109375 -10.015625 0.859375 -10.054688 0.546875 -10.078125 L 0.546875 -10.625 L 4.40625 -10.625 L 9.96875 -2.65625 L 10.015625 -2.65625 L 10.015625 -7.984375 C 10.015625 -8.441406 10 -8.804688 9.96875 -9.078125 C 9.9375 -9.347656 9.867188 -9.554688 9.765625 -9.703125 C 9.660156 -9.847656 9.507812 -9.941406 9.3125 -9.984375 C 9.125 -10.035156 8.878906 -10.066406 8.578125 -10.078125 L 8.578125 -10.625 L 12.671875 -10.625 L 12.671875 -10.078125 C 12.335938 -10.066406 12.066406 -10.035156 11.859375 -9.984375 C 11.648438 -9.929688 11.488281 -9.835938 11.375 -9.703125 C 11.257812 -9.566406 11.179688 -9.367188 11.140625 -9.109375 C 11.109375 -8.847656 11.09375 -8.503906 11.09375 -8.078125 L 11.09375 0.140625 Z M 9.25 0.140625 "/></g></g></g><g fill="#2b4257" fill-opacity="1"><g transform="translate(253.774629, 135.578033)"><g/></g></g><g fill="#2b4257" fill-opacity="1"><g transform="translate(259.514491, 135.578033)"><g><path d="M 9.75 -10.625 L 10.4375 -10.625 L 10.15625 -7.140625 L 9.609375 -7.140625 C 9.410156 -7.984375 9.03125 -8.644531 8.46875 -9.125 C 7.914062 -9.613281 7.242188 -9.859375 6.453125 -9.859375 C 5.910156 -9.859375 5.425781 -9.75 5 -9.53125 C 4.582031 -9.320312 4.226562 -9.015625 3.9375 -8.609375 C 3.644531 -8.210938 3.421875 -7.726562 3.265625 -7.15625 C 3.117188 -6.582031 3.046875 -5.9375 3.046875 -5.21875 C 3.046875 -3.789062 3.335938 -2.691406 3.921875 -1.921875 C 4.503906 -1.148438 5.367188 -0.765625 6.515625 -0.765625 C 7.429688 -0.765625 8.191406 -1.015625 8.796875 -1.515625 C 9.398438 -2.015625 9.828125 -2.753906 10.078125 -3.734375 L 10.6875 -3.734375 L 10.6875 0 L 10.046875 0 L 9.84375 -1.09375 C 8.832031 -0.269531 7.609375 0.140625 6.171875 0.140625 C 5.328125 0.140625 4.566406 0.015625 3.890625 -0.234375 C 3.210938 -0.484375 2.632812 -0.832031 2.15625 -1.28125 C 1.675781 -1.738281 1.304688 -2.296875 1.046875 -2.953125 C 0.785156 -3.609375 0.65625 -4.332031 0.65625 -5.125 C 0.65625 -5.96875 0.789062 -6.734375 1.0625 -7.421875 C 1.332031 -8.109375 1.71875 -8.703125 2.21875 -9.203125 C 2.726562 -9.703125 3.328125 -10.085938 4.015625 -10.359375 C 4.710938 -10.628906 5.484375 -10.765625 6.328125 -10.765625 C 6.890625 -10.765625 7.414062 -10.6875 7.90625 -10.53125 C 8.394531 -10.375 8.925781 -10.117188 9.5 -9.765625 Z M 9.75 -10.625 "/></g></g></g><g fill="#2b4257" fill-opacity="1"><g transform="translate(272.939678, 135.578033)"><g><path d="M 6.90625 -3.21875 L 3 -3.21875 C 2.570312 -2.238281 2.359375 -1.5625 2.359375 -1.1875 C 2.359375 -0.90625 2.460938 -0.726562 2.671875 -0.65625 C 2.878906 -0.582031 3.1875 -0.546875 3.59375 -0.546875 L 3.59375 0 L -0.171875 0 L -0.171875 -0.546875 C 0.046875 -0.578125 0.234375 -0.613281 0.390625 -0.65625 C 0.554688 -0.707031 0.695312 -0.773438 0.8125 -0.859375 C 0.9375 -0.941406 1.046875 -1.046875 1.140625 -1.171875 C 1.234375 -1.304688 1.320312 -1.472656 1.40625 -1.671875 L 5.03125 -10.765625 L 6.0625 -10.765625 L 9.359375 -2.703125 C 9.546875 -2.234375 9.707031 -1.863281 9.84375 -1.59375 C 9.976562 -1.332031 10.117188 -1.128906 10.265625 -0.984375 C 10.421875 -0.835938 10.597656 -0.738281 10.796875 -0.6875 C 10.992188 -0.632812 11.25 -0.59375 11.5625 -0.5625 L 11.5625 0 L 6.34375 0 L 6.34375 -0.5625 C 6.789062 -0.582031 7.109375 -0.628906 7.296875 -0.703125 C 7.492188 -0.773438 7.59375 -0.921875 7.59375 -1.140625 C 7.59375 -1.273438 7.554688 -1.441406 7.484375 -1.640625 C 7.421875 -1.847656 7.335938 -2.097656 7.234375 -2.390625 Z M 3.328125 -4.046875 L 6.609375 -4.046875 L 5.015625 -8.21875 L 4.96875 -8.21875 Z M 3.328125 -4.046875 "/></g></g></g><g fill="#2b4257" fill-opacity="1"><g transform="translate(286.171688, 135.578033)"><g><path d="M 11.25 -7.59375 L 10.65625 -7.59375 C 10.625 -8.039062 10.554688 -8.410156 10.453125 -8.703125 C 10.347656 -9.003906 10.195312 -9.242188 10 -9.421875 C 9.8125 -9.609375 9.578125 -9.734375 9.296875 -9.796875 C 9.023438 -9.867188 8.703125 -9.90625 8.328125 -9.90625 C 7.972656 -9.90625 7.6875 -9.894531 7.46875 -9.875 C 7.25 -9.863281 7.082031 -9.84375 6.96875 -9.8125 C 6.851562 -9.78125 6.773438 -9.738281 6.734375 -9.6875 C 6.703125 -9.632812 6.6875 -9.566406 6.6875 -9.484375 L 6.6875 -2.25 C 6.6875 -1.957031 6.707031 -1.703125 6.75 -1.484375 C 6.789062 -1.273438 6.875 -1.101562 7 -0.96875 C 7.132812 -0.832031 7.328125 -0.726562 7.578125 -0.65625 C 7.828125 -0.59375 8.148438 -0.554688 8.546875 -0.546875 L 8.546875 0 L 2.765625 0 L 2.765625 -0.546875 C 3.179688 -0.554688 3.515625 -0.59375 3.765625 -0.65625 C 4.015625 -0.726562 4.207031 -0.832031 4.34375 -0.96875 C 4.476562 -1.101562 4.5625 -1.273438 4.59375 -1.484375 C 4.632812 -1.703125 4.65625 -1.957031 4.65625 -2.25 L 4.65625 -9.484375 C 4.65625 -9.566406 4.640625 -9.632812 4.609375 -9.6875 C 4.578125 -9.738281 4.507812 -9.78125 4.40625 -9.8125 C 4.3125 -9.84375 4.171875 -9.863281 3.984375 -9.875 C 3.796875 -9.894531 3.550781 -9.90625 3.25 -9.90625 C 2.914062 -9.90625 2.59375 -9.890625 2.28125 -9.859375 C 1.976562 -9.828125 1.710938 -9.734375 1.484375 -9.578125 C 1.253906 -9.429688 1.066406 -9.203125 0.921875 -8.890625 C 0.785156 -8.585938 0.710938 -8.15625 0.703125 -7.59375 L 0.171875 -7.59375 L 0.296875 -10.625 L 11.109375 -10.625 Z M 11.25 -7.59375 "/></g></g></g><g fill="#2b4257" fill-opacity="1"><g transform="translate(299.652067, 135.578033)"><g><path d="M 3.953125 -5.875 C 4.546875 -5.875 5.019531 -5.890625 5.375 -5.921875 C 5.738281 -5.960938 6.019531 -6.039062 6.21875 -6.15625 C 6.414062 -6.269531 6.554688 -6.4375 6.640625 -6.65625 C 6.722656 -6.882812 6.785156 -7.1875 6.828125 -7.5625 L 7.34375 -7.5625 L 7.34375 -3.515625 L 6.828125 -3.515625 C 6.773438 -3.878906 6.703125 -4.171875 6.609375 -4.390625 C 6.515625 -4.617188 6.363281 -4.789062 6.15625 -4.90625 C 5.957031 -5.019531 5.6875 -5.09375 5.34375 -5.125 C 5 -5.15625 4.535156 -5.171875 3.953125 -5.171875 L 3.953125 -2.328125 C 3.953125 -2.035156 3.988281 -1.785156 4.0625 -1.578125 C 4.144531 -1.378906 4.28125 -1.21875 4.46875 -1.09375 C 4.65625 -0.96875 4.898438 -0.878906 5.203125 -0.828125 C 5.503906 -0.785156 5.875 -0.765625 6.3125 -0.765625 C 6.84375 -0.765625 7.285156 -0.800781 7.640625 -0.875 C 8.003906 -0.945312 8.304688 -1.070312 8.546875 -1.25 C 8.785156 -1.4375 8.976562 -1.679688 9.125 -1.984375 C 9.28125 -2.296875 9.40625 -2.6875 9.5 -3.15625 L 10.0625 -3.15625 L 9.84375 0 L 0.484375 0 L 0.484375 -0.546875 C 0.785156 -0.554688 1.03125 -0.582031 1.21875 -0.625 C 1.414062 -0.675781 1.566406 -0.753906 1.671875 -0.859375 C 1.773438 -0.972656 1.84375 -1.128906 1.875 -1.328125 C 1.914062 -1.535156 1.9375 -1.800781 1.9375 -2.125 L 1.9375 -8.5 C 1.9375 -8.820312 1.914062 -9.082031 1.875 -9.28125 C 1.84375 -9.476562 1.78125 -9.632812 1.6875 -9.75 C 1.601562 -9.863281 1.472656 -9.941406 1.296875 -9.984375 C 1.128906 -10.023438 0.910156 -10.054688 0.640625 -10.078125 L 0.640625 -10.625 L 9.359375 -10.625 L 9.453125 -7.921875 L 8.859375 -7.921875 C 8.804688 -8.304688 8.71875 -8.625 8.59375 -8.875 C 8.476562 -9.125 8.3125 -9.328125 8.09375 -9.484375 C 7.882812 -9.640625 7.613281 -9.742188 7.28125 -9.796875 C 6.945312 -9.859375 6.535156 -9.890625 6.046875 -9.890625 L 4.484375 -9.890625 C 4.242188 -9.890625 4.09375 -9.859375 4.03125 -9.796875 C 3.976562 -9.742188 3.953125 -9.601562 3.953125 -9.375 Z M 3.953125 -5.875 "/></g></g></g><g fill="#2b4257" fill-opacity="1"><g transform="translate(312.263193, 135.578033)"><g><path d="M 9.59375 -7.953125 C 9.59375 -7.191406 9.367188 -6.550781 8.921875 -6.03125 C 8.484375 -5.519531 7.78125 -5.179688 6.8125 -5.015625 L 10.015625 -1.34375 C 10.234375 -1.082031 10.492188 -0.882812 10.796875 -0.75 C 11.109375 -0.613281 11.421875 -0.546875 11.734375 -0.546875 L 11.734375 0 L 8.453125 0 L 5.03125 -4.1875 C 4.800781 -4.46875 4.601562 -4.65625 4.4375 -4.75 C 4.269531 -4.84375 4.109375 -4.890625 3.953125 -4.890625 L 3.953125 -2.1875 C 3.953125 -1.851562 3.972656 -1.578125 4.015625 -1.359375 C 4.066406 -1.140625 4.160156 -0.96875 4.296875 -0.84375 C 4.441406 -0.726562 4.644531 -0.648438 4.90625 -0.609375 C 5.164062 -0.566406 5.515625 -0.546875 5.953125 -0.546875 L 5.953125 0 L 0.484375 0 L 0.484375 -0.546875 C 0.785156 -0.546875 1.03125 -0.566406 1.21875 -0.609375 C 1.40625 -0.648438 1.550781 -0.726562 1.65625 -0.84375 C 1.769531 -0.957031 1.84375 -1.117188 1.875 -1.328125 C 1.914062 -1.535156 1.9375 -1.800781 1.9375 -2.125 L 1.9375 -8.5 C 1.9375 -8.820312 1.921875 -9.082031 1.890625 -9.28125 C 1.859375 -9.476562 1.796875 -9.632812 1.703125 -9.75 C 1.617188 -9.863281 1.488281 -9.941406 1.3125 -9.984375 C 1.144531 -10.023438 0.921875 -10.054688 0.640625 -10.078125 L 0.640625 -10.625 L 5.40625 -10.625 C 6.738281 -10.625 7.769531 -10.390625 8.5 -9.921875 C 9.226562 -9.453125 9.59375 -8.796875 9.59375 -7.953125 Z M 3.953125 -5.71875 L 4.859375 -5.71875 C 5.722656 -5.71875 6.367188 -5.882812 6.796875 -6.21875 C 7.222656 -6.5625 7.4375 -7.117188 7.4375 -7.890625 C 7.4375 -8.484375 7.253906 -8.957031 6.890625 -9.3125 C 6.535156 -9.664062 6.039062 -9.84375 5.40625 -9.84375 L 4.203125 -9.84375 C 4.035156 -9.84375 3.953125 -9.765625 3.953125 -9.609375 Z M 3.953125 -5.71875 "/></g></g></g><g fill="#2b4257" fill-opacity="1"><g transform="translate(325.577996, 135.578033)"><g><path d="M 5.421875 0 L 0.5 0 L 0.5 -0.546875 C 0.8125 -0.554688 1.0625 -0.585938 1.25 -0.640625 C 1.4375 -0.691406 1.578125 -0.785156 1.671875 -0.921875 C 1.773438 -1.054688 1.847656 -1.25 1.890625 -1.5 C 1.929688 -1.757812 1.953125 -2.101562 1.953125 -2.53125 L 1.953125 -8.078125 C 1.953125 -8.472656 1.929688 -8.796875 1.890625 -9.046875 C 1.859375 -9.296875 1.796875 -9.492188 1.703125 -9.640625 C 1.617188 -9.785156 1.488281 -9.890625 1.3125 -9.953125 C 1.144531 -10.015625 0.921875 -10.054688 0.640625 -10.078125 L 0.640625 -10.625 L 5.28125 -10.625 L 5.28125 -10.078125 C 5 -10.054688 4.769531 -10.015625 4.59375 -9.953125 C 4.425781 -9.890625 4.296875 -9.785156 4.203125 -9.640625 C 4.109375 -9.492188 4.046875 -9.296875 4.015625 -9.046875 C 3.984375 -8.796875 3.96875 -8.472656 3.96875 -8.078125 L 3.96875 -2.53125 C 3.96875 -2.101562 3.984375 -1.757812 4.015625 -1.5 C 4.046875 -1.25 4.113281 -1.054688 4.21875 -0.921875 C 4.332031 -0.785156 4.484375 -0.691406 4.671875 -0.640625 C 4.859375 -0.585938 5.109375 -0.554688 5.421875 -0.546875 Z M 5.421875 0 "/></g></g></g><g fill="#2b4257" fill-opacity="1"><g transform="translate(333.566874, 135.578033)"><g><path d="M 9.25 0.140625 L 3.125 -8.5625 L 3.078125 -8.5625 L 3.078125 -2.640625 C 3.078125 -2.179688 3.09375 -1.816406 3.125 -1.546875 C 3.15625 -1.273438 3.222656 -1.066406 3.328125 -0.921875 C 3.429688 -0.773438 3.578125 -0.675781 3.765625 -0.625 C 3.960938 -0.582031 4.210938 -0.554688 4.515625 -0.546875 L 4.515625 0 L 0.40625 0 L 0.40625 -0.546875 C 0.75 -0.554688 1.023438 -0.585938 1.234375 -0.640625 C 1.441406 -0.691406 1.601562 -0.785156 1.71875 -0.921875 C 1.832031 -1.054688 1.90625 -1.25 1.9375 -1.5 C 1.976562 -1.757812 2 -2.101562 2 -2.53125 L 2 -8.078125 C 2 -8.472656 1.976562 -8.796875 1.9375 -9.046875 C 1.90625 -9.296875 1.835938 -9.492188 1.734375 -9.640625 C 1.640625 -9.785156 1.492188 -9.890625 1.296875 -9.953125 C 1.109375 -10.015625 0.859375 -10.054688 0.546875 -10.078125 L 0.546875 -10.625 L 4.40625 -10.625 L 9.96875 -2.65625 L 10.015625 -2.65625 L 10.015625 -7.984375 C 10.015625 -8.441406 10 -8.804688 9.96875 -9.078125 C 9.9375 -9.347656 9.867188 -9.554688 9.765625 -9.703125 C 9.660156 -9.847656 9.507812 -9.941406 9.3125 -9.984375 C 9.125 -10.035156 8.878906 -10.066406 8.578125 -10.078125 L 8.578125 -10.625 L 12.671875 -10.625 L 12.671875 -10.078125 C 12.335938 -10.066406 12.066406 -10.035156 11.859375 -9.984375 C 11.648438 -9.929688 11.488281 -9.835938 11.375 -9.703125 C 11.257812 -9.566406 11.179688 -9.367188 11.140625 -9.109375 C 11.109375 -8.847656 11.09375 -8.503906 11.09375 -8.078125 L 11.09375 0.140625 Z M 9.25 0.140625 "/></g></g></g><g fill="#2b4257" fill-opacity="1"><g transform="translate(348.606393, 135.578033)"><g><path d="M 6.046875 0.140625 C 5.210938 0.140625 4.460938 0.0195312 3.796875 -0.21875 C 3.128906 -0.46875 2.5625 -0.816406 2.09375 -1.265625 C 1.632812 -1.722656 1.28125 -2.273438 1.03125 -2.921875 C 0.78125 -3.578125 0.65625 -4.3125 0.65625 -5.125 C 0.65625 -5.957031 0.789062 -6.71875 1.0625 -7.40625 C 1.332031 -8.101562 1.707031 -8.703125 2.1875 -9.203125 C 2.675781 -9.703125 3.257812 -10.085938 3.9375 -10.359375 C 4.625 -10.628906 5.378906 -10.765625 6.203125 -10.765625 C 6.773438 -10.765625 7.316406 -10.6875 7.828125 -10.53125 C 8.347656 -10.375 8.90625 -10.117188 9.5 -9.765625 L 9.765625 -10.625 L 10.265625 -10.625 L 10.265625 -7.140625 L 9.578125 -7.140625 C 9.390625 -8.003906 9.015625 -8.671875 8.453125 -9.140625 C 7.898438 -9.617188 7.207031 -9.859375 6.375 -9.859375 C 5.3125 -9.859375 4.488281 -9.453125 3.90625 -8.640625 C 3.320312 -7.828125 3.03125 -6.691406 3.03125 -5.234375 C 3.03125 -3.796875 3.316406 -2.691406 3.890625 -1.921875 C 4.460938 -1.160156 5.289062 -0.78125 6.375 -0.78125 C 7.15625 -0.78125 7.765625 -0.976562 8.203125 -1.375 C 8.640625 -1.78125 8.859375 -2.335938 8.859375 -3.046875 C 8.859375 -3.472656 8.742188 -3.785156 8.515625 -3.984375 C 8.296875 -4.179688 7.925781 -4.300781 7.40625 -4.34375 L 7.40625 -4.890625 L 11.875 -4.890625 L 11.875 -4.34375 C 11.425781 -4.34375 11.113281 -4.242188 10.9375 -4.046875 C 10.757812 -3.847656 10.671875 -3.492188 10.671875 -2.984375 L 10.671875 -1.140625 C 10.472656 -1.140625 10.304688 -1.132812 10.171875 -1.125 C 10.035156 -1.113281 9.898438 -1.085938 9.765625 -1.046875 C 9.628906 -1.003906 9.476562 -0.9375 9.3125 -0.84375 C 9.144531 -0.75 8.9375 -0.628906 8.6875 -0.484375 C 7.976562 -0.0664062 7.097656 0.140625 6.046875 0.140625 Z M 6.046875 0.140625 "/></g></g></g></g></g></svg>
