<svg xmlns="http://www.w3.org/2000/svg" viewBox="0 0 200 200" style="background:#FDFCF8">
  <rect x="20" y="20" width="160" height="160" fill="none" stroke="#B08D4F" stroke-width="2"/>
  <!-- QR Code pattern placeholder -->
  <rect x="30" y="30" width="40" height="40" fill="#B08D4F"/>
  <rect x="130" y="30" width="40" height="40" fill="#B08D4F"/>
  <rect x="30" y="130" width="40" height="40" fill="#B08D4F"/>
  <rect x="40" y="40" width="20" height="20" fill="#FDFCF8"/>
  <rect x="140" y="40" width="20" height="20" fill="#FDFCF8"/>
  <rect x="40" y="140" width="20" height="20" fill="#FDFCF8"/>
  <!-- Center pattern -->
  <rect x="80" y="80" width="40" height="40" fill="#B08D4F"/>
  <rect x="90" y="90" width="20" height="20" fill="#FDFCF8"/>
  <!-- Data pattern simulation -->
  <rect x="80" y="30" width="10" height="10" fill="#B08D4F"/>
  <rect x="100" y="30" width="10" height="10" fill="#B08D4F"/>
  <rect x="80" y="50" width="10" height="10" fill="#B08D4F"/>
  <rect x="30" y="80" width="10" height="10" fill="#B08D4F"/>
  <rect x="50" y="100" width="10" height="10" fill="#B08D4F"/>
  <rect x="130" y="80" width="10" height="10" fill="#B08D4F"/>
  <rect x="150" y="100" width="10" height="10" fill="#B08D4F"/>
  <rect x="130" y="130" width="10" height="10" fill="#B08D4F"/>
  <rect x="150" y="150" width="10" height="10" fill="#B08D4F"/>
  <rect x="80" y="130" width="10" height="10" fill="#B08D4F"/>
  <rect x="100" y="150" width="10" height="10" fill="#B08D4F"/>
</svg>